<?xml version="1.0" encoding="utf-8"?>
<!-- Generator: Adobe Illustrator 19.0.0, SVG Export Plug-In . SVG Version: 6.00 Build 0)  -->
<!DOCTYPE svg PUBLIC "-//W3C//DTD SVG 1.1//EN" "http://www.w3.org/Graphics/SVG/1.1/DTD/svg11.dtd">
<svg version="1.1" id="Layer_1" xmlns="http://www.w3.org/2000/svg" xmlns:xlink="http://www.w3.org/1999/xlink" x="0px" y="0px"
	 viewBox="285 -285 600 600" style="enable-background:new 285 -285 600 600;" xml:space="preserve">
<style type="text/css">
	.st0{display:none;}
	.st1{display:inline;fill:#FFFFFF;stroke:#000000;stroke-miterlimit:10;}
	.st2{display:inline;fill:none;stroke:#252525;stroke-miterlimit:10;}
	.st3{fill:none;stroke:#FFFFFF;stroke-miterlimit:10;}
</style>
<g id="Layer_1_1_" class="st0">
	<circle id="XMLID_1_" class="st1" cx="870" cy="-270" r="284.3"/>
</g>
<g id="Layer_2" class="st0">
	<line id="XMLID_5_" class="st2" x1="869.5" y1="-560" x2="869.5" y2="-522"/>
	<line id="XMLID_6_" class="st2" x1="839.2" y1="-558.4" x2="841.4" y2="-537.5"/>
	<line id="XMLID_7_" class="st2" x1="809.2" y1="-553.6" x2="813.6" y2="-533"/>
	<line id="XMLID_8_" class="st2" x1="779.9" y1="-545.7" x2="786.4" y2="-525.7"/>
	<line id="XMLID_9_" class="st2" x1="751.6" y1="-534.8" x2="760.1" y2="-515.6"/>
	<line id="XMLID_14_" class="st2" x1="724.5" y1="-521.2" x2="743.5" y2="-488.3"/>
	<line id="XMLID_13_" class="st2" x1="699" y1="-504.6" x2="711.4" y2="-487.7"/>
	<line id="XMLID_12_" class="st2" x1="675.5" y1="-485.5" x2="689.5" y2="-469.9"/>
	<line id="XMLID_11_" class="st2" x1="654" y1="-464" x2="669.6" y2="-450"/>
	<line id="XMLID_10_" class="st2" x1="635" y1="-440.4" x2="651.9" y2="-428.1"/>
	<line id="XMLID_19_" class="st2" x1="618.3" y1="-415.1" x2="651.2" y2="-396.1"/>
	<line id="XMLID_18_" class="st2" x1="604.5" y1="-388" x2="623.7" y2="-379.5"/>
	<line id="XMLID_17_" class="st2" x1="593.7" y1="-359.7" x2="613.7" y2="-353.2"/>
	<line id="XMLID_16_" class="st2" x1="585.9" y1="-330.4" x2="606.4" y2="-326"/>
	<line id="XMLID_15_" class="st2" x1="581.2" y1="-300.4" x2="602" y2="-298.2"/>
	<line id="XMLID_24_" class="st2" x1="579" y1="-270.5" x2="617" y2="-270.5"/>
	<line id="XMLID_23_" class="st2" x1="581" y1="-239.8" x2="601.9" y2="-242"/>
	<line id="XMLID_22_" class="st2" x1="585.8" y1="-209.8" x2="606.3" y2="-214.2"/>
	<line id="XMLID_21_" class="st2" x1="593.7" y1="-180.5" x2="613.6" y2="-187"/>
	<line id="XMLID_20_" class="st2" x1="604.6" y1="-152.2" x2="623.8" y2="-160.7"/>
	<line id="XMLID_29_" class="st2" x1="617.6" y1="-125.2" x2="650.5" y2="-144.2"/>
	<line id="XMLID_28_" class="st2" x1="634.7" y1="-99.7" x2="651.7" y2="-112"/>
	<line id="XMLID_27_" class="st2" x1="653.8" y1="-76.1" x2="669.4" y2="-90.1"/>
	<line id="XMLID_26_" class="st2" x1="675.3" y1="-54.6" x2="689.4" y2="-70.3"/>
	<line id="XMLID_25_" class="st2" x1="698.9" y1="-35.6" x2="711.3" y2="-52.6"/>
	<line id="XMLID_34_" class="st2" x1="723.7" y1="-18.8" x2="742.7" y2="-51.7"/>
	<line id="XMLID_33_" class="st2" x1="751.3" y1="-5.1" x2="759.8" y2="-24.3"/>
	<line id="XMLID_32_" class="st2" x1="779.7" y1="5.7" x2="786.1" y2="-14.3"/>
	<line id="XMLID_31_" class="st2" x1="809" y1="13.5" x2="813.4" y2="-7"/>
	<line id="XMLID_30_" class="st2" x1="839" y1="18.2" x2="841.2" y2="-2.7"/>
	<line id="XMLID_39_" class="st2" x1="868.5" y1="20" x2="868.5" y2="-18"/>
	<line id="XMLID_38_" class="st2" x1="899.5" y1="18.4" x2="897.3" y2="-2.5"/>
	<line id="XMLID_37_" class="st2" x1="929.5" y1="13.6" x2="925.1" y2="-6.9"/>
	<line id="XMLID_36_" class="st2" x1="958.8" y1="5.7" x2="952.3" y2="-14.2"/>
	<line id="XMLID_35_" class="st2" x1="987.2" y1="-5.2" x2="978.6" y2="-24.4"/>
	<line id="XMLID_44_" class="st2" x1="1013.6" y1="-18.4" x2="994.6" y2="-51.3"/>
	<line id="XMLID_43_" class="st2" x1="1039.7" y1="-35.3" x2="1027.3" y2="-52.3"/>
	<line id="XMLID_42_" class="st2" x1="1063.3" y1="-54.4" x2="1049.2" y2="-70.1"/>
	<line id="XMLID_41_" class="st2" x1="1084.7" y1="-75.9" x2="1069.1" y2="-90"/>
	<line id="XMLID_40_" class="st2" x1="1103.8" y1="-99.6" x2="1086.8" y2="-111.9"/>
	<line id="XMLID_49_" class="st2" x1="1120.1" y1="-124.2" x2="1087.2" y2="-143.2"/>
	<line id="XMLID_48_" class="st2" x1="1134.2" y1="-151.9" x2="1115" y2="-160.5"/>
	<line id="XMLID_47_" class="st2" x1="1145" y1="-180.3" x2="1125.1" y2="-186.8"/>
	<line id="XMLID_46_" class="st2" x1="1152.9" y1="-209.6" x2="1132.3" y2="-214"/>
	<line id="XMLID_45_" class="st2" x1="1157.6" y1="-239.6" x2="1136.7" y2="-241.8"/>
	<line id="XMLID_54_" class="st2" x1="1159" y1="-269.5" x2="1121" y2="-269.5"/>
	<line id="XMLID_53_" class="st2" x1="1157.8" y1="-300.2" x2="1136.9" y2="-298"/>
	<line id="XMLID_52_" class="st2" x1="1153" y1="-330.1" x2="1132.4" y2="-325.8"/>
	<line id="XMLID_51_" class="st2" x1="1145.1" y1="-359.4" x2="1125.1" y2="-353"/>
	<line id="XMLID_50_" class="st2" x1="1134.1" y1="-387.8" x2="1115" y2="-379.2"/>
	<line id="XMLID_59_" class="st2" x1="1120.4" y1="-414.4" x2="1087.5" y2="-395.4"/>
	<line id="XMLID_58_" class="st2" x1="1104" y1="-440.3" x2="1087" y2="-428"/>
	<line id="XMLID_57_" class="st2" x1="1084.9" y1="-463.9" x2="1069.3" y2="-449.8"/>
	<line id="XMLID_56_" class="st2" x1="1063.4" y1="-485.3" x2="1049.3" y2="-469.7"/>
	<line id="XMLID_55_" class="st2" x1="1039.8" y1="-504.4" x2="1027.4" y2="-487.4"/>
	<line id="XMLID_64_" class="st2" x1="1014.6" y1="-520.6" x2="995.6" y2="-487.7"/>
	<line id="XMLID_63_" class="st2" x1="987.4" y1="-534.8" x2="978.9" y2="-515.6"/>
	<line id="XMLID_62_" class="st2" x1="959.1" y1="-545.7" x2="952.6" y2="-525.7"/>
	<line id="XMLID_61_" class="st2" x1="929.7" y1="-553.5" x2="925.4" y2="-532.9"/>
	<line id="XMLID_60_" class="st2" x1="899.7" y1="-558.2" x2="897.6" y2="-537.3"/>
</g>
<g id="Layer_3">
	<line id="XMLID_4_" class="st3" x1="584.7" y1="-25" x2="584.7" y2="-33"/>
	<line id="XMLID_66_" class="st3" x1="580.4" y1="-24.7" x2="579.7" y2="-32.7"/>
	<line id="XMLID_67_" class="st3" x1="576.3" y1="-24" x2="574.7" y2="-31.9"/>
	<line id="XMLID_68_" class="st3" x1="572.3" y1="-22.9" x2="569.8" y2="-30.5"/>
	<line id="XMLID_69_" class="st3" x1="568.4" y1="-21.4" x2="565.2" y2="-28.7"/>
	<line id="XMLID_70_" class="st3" x1="564.7" y1="-19.4" x2="560.7" y2="-26.4"/>
	<line id="XMLID_71_" class="st3" x1="561.2" y1="-17.1" x2="556.4" y2="-23.6"/>
	<line id="XMLID_72_" class="st3" x1="557.9" y1="-14.5" x2="552.7" y2="-20.4"/>
	<line id="XMLID_73_" class="st3" x1="555.1" y1="-11.5" x2="549.1" y2="-16.8"/>
	<line id="XMLID_74_" class="st3" x1="552.4" y1="-8.2" x2="545.9" y2="-12.9"/>
	<line id="XMLID_75_" class="st3" x1="550.2" y1="-4.6" x2="543.2" y2="-8.6"/>
	<line id="XMLID_76_" class="st3" x1="548.3" y1="-0.9" x2="541.1" y2="-4.2"/>
	<line id="XMLID_77_" class="st3" x1="546.8" y1="3" x2="539.2" y2="0.6"/>
	<line id="XMLID_78_" class="st3" x1="545.8" y1="7.1" x2="537.9" y2="5.4"/>
	<line id="XMLID_79_" class="st3" x1="545.2" y1="11.2" x2="537.2" y2="10.4"/>
	<line id="XMLID_80_" class="st3" x1="555.2" y1="15.5" x2="537.2" y2="15.5"/>
	<line id="XMLID_81_" class="st3" x1="545.4" y1="19.7" x2="537.4" y2="20.5"/>
	<line id="XMLID_82_" class="st3" x1="546.2" y1="23.8" x2="538.2" y2="25.4"/>
	<line id="XMLID_83_" class="st3" x1="547.2" y1="27.8" x2="539.7" y2="30.3"/>
	<line id="XMLID_84_" class="st3" x1="548.8" y1="31.7" x2="541.4" y2="34.9"/>
	<line id="XMLID_85_" class="st3" x1="550.8" y1="35.4" x2="543.8" y2="39.4"/>
	<line id="XMLID_86_" class="st3" x1="553.1" y1="38.9" x2="546.6" y2="43.6"/>
	<line id="XMLID_87_" class="st3" x1="555.8" y1="42.1" x2="549.8" y2="47.4"/>
	<line id="XMLID_88_" class="st3" x1="558.8" y1="45" x2="553.3" y2="50.9"/>
	<line id="XMLID_89_" class="st3" x1="561.9" y1="47.6" x2="557.2" y2="54"/>
	<line id="XMLID_90_" class="st3" x1="565.6" y1="49.8" x2="561.6" y2="56.7"/>
	<line id="XMLID_91_" class="st3" x1="569.2" y1="51.7" x2="566.1" y2="59"/>
	<line id="XMLID_92_" class="st3" x1="573.2" y1="53.1" x2="570.7" y2="60.7"/>
	<line id="XMLID_93_" class="st3" x1="577.2" y1="54.1" x2="575.6" y2="62"/>
	<line id="XMLID_94_" class="st3" x1="581.3" y1="54.7" x2="580.6" y2="62.7"/>
	<line id="XMLID_95_" class="st3" x1="585.7" y1="55" x2="585.7" y2="63"/>
	<line id="XMLID_96_" class="st3" x1="589.8" y1="54.7" x2="590.7" y2="62.7"/>
	<line id="XMLID_97_" class="st3" x1="593.9" y1="54" x2="595.7" y2="61.8"/>
	<line id="XMLID_98_" class="st3" x1="597.9" y1="52.9" x2="600.4" y2="60.5"/>
	<line id="XMLID_99_" class="st3" x1="601.8" y1="51.3" x2="605.2" y2="58.6"/>
	<line id="XMLID_100_" class="st3" x1="605.6" y1="49.3" x2="609.6" y2="56.3"/>
	<line id="XMLID_101_" class="st3" x1="609.1" y1="47" x2="613.8" y2="53.5"/>
	<line id="XMLID_102_" class="st3" x1="612.2" y1="44.3" x2="617.6" y2="50.3"/>
	<line id="XMLID_103_" class="st3" x1="615.2" y1="41.3" x2="621.2" y2="46.7"/>
	<line id="XMLID_104_" class="st3" x1="617.8" y1="38" x2="624.2" y2="42.7"/>
	<line id="XMLID_105_" class="st3" x1="619.9" y1="34.5" x2="626.8" y2="38.5"/>
	<line id="XMLID_106_" class="st3" x1="621.8" y1="30.7" x2="629.2" y2="34"/>
	<line id="XMLID_107_" class="st3" x1="623.2" y1="26.8" x2="630.8" y2="29.3"/>
	<line id="XMLID_108_" class="st3" x1="624.2" y1="22.7" x2="632.1" y2="24.4"/>
	<line id="XMLID_109_" class="st3" x1="624.8" y1="18.6" x2="632.8" y2="19.4"/>
	<line id="XMLID_110_" class="st3" x1="615.2" y1="14.5" x2="633.2" y2="14.5"/>
	<line id="XMLID_111_" class="st3" x1="624.8" y1="10.3" x2="632.8" y2="9.5"/>
	<line id="XMLID_112_" class="st3" x1="624.2" y1="6.2" x2="631.9" y2="4.5"/>
	<line id="XMLID_113_" class="st3" x1="623.1" y1="2.1" x2="630.7" y2="-0.3"/>
	<line id="XMLID_114_" class="st3" x1="621.4" y1="-1.8" x2="628.8" y2="-5"/>
	<line id="XMLID_115_" class="st3" x1="619.6" y1="-5.5" x2="626.4" y2="-9.5"/>
	<line id="XMLID_116_" class="st3" x1="617.2" y1="-9" x2="623.7" y2="-13.7"/>
	<line id="XMLID_117_" class="st3" x1="614.4" y1="-12.2" x2="620.4" y2="-17.6"/>
	<line id="XMLID_118_" class="st3" x1="611.4" y1="-15.1" x2="616.8" y2="-21.1"/>
	<line id="XMLID_119_" class="st3" x1="608.2" y1="-17.7" x2="612.8" y2="-24.2"/>
	<line id="XMLID_120_" class="st3" x1="604.7" y1="-20" x2="608.7" y2="-26.9"/>
	<line id="XMLID_121_" class="st3" x1="600.8" y1="-21.8" x2="604.2" y2="-29.1"/>
	<line id="XMLID_122_" class="st3" x1="596.9" y1="-23.3" x2="599.4" y2="-30.9"/>
	<line id="XMLID_123_" class="st3" x1="592.8" y1="-24.3" x2="594.6" y2="-32.1"/>
	<line id="XMLID_124_" class="st3" x1="588.8" y1="-24.9" x2="589.6" y2="-32.9"/>
	<path id="XMLID_126_" class="st3" d="M529.2,15c0-30.8,25-55.9,55.9-55.9"/>
	<path id="XMLID_65_" class="st3" d="M640.8,15c0,30.8-25,55.9-55.9,55.9"/>
</g>
</svg>
