<?xml version="1.0" encoding="utf-8"?>
<!-- Generator: Adobe Illustrator 19.0.0, SVG Export Plug-In . SVG Version: 6.00 Build 0)  -->
<!DOCTYPE svg PUBLIC "-//W3C//DTD SVG 1.1//EN" "http://www.w3.org/Graphics/SVG/1.1/DTD/svg11.dtd">
<svg version="1.1" id="Layer_1" xmlns="http://www.w3.org/2000/svg" xmlns:xlink="http://www.w3.org/1999/xlink" x="0px" y="0px"
	 viewBox="285 -285 600 600" style="enable-background:new 285 -285 600 600;" xml:space="preserve">
<style type="text/css">
	.st0{display:none;}
	.st1{display:inline;fill:#FFFFFF;stroke:#000000;stroke-miterlimit:10;}
	.st2{fill:none;stroke:#FFFFFF;stroke-miterlimit:10;}
	.st3{display:inline;fill:none;stroke:#252525;stroke-miterlimit:10;}
</style>
<g id="Layer_1_1_" class="st0">
	<circle id="XMLID_1_" class="st1" cx="585" cy="15" r="284.3"/>
</g>
<g id="Layer_2">
	<line id="XMLID_5_" class="st2" x1="584.5" y1="-275" x2="584.5" y2="-237"/>
	<line id="XMLID_6_" class="st2" x1="554.2" y1="-273.4" x2="556.4" y2="-252.5"/>
	<line id="XMLID_7_" class="st2" x1="524.2" y1="-268.6" x2="528.6" y2="-248"/>
	<line id="XMLID_8_" class="st2" x1="494.9" y1="-260.7" x2="501.4" y2="-240.7"/>
	<line id="XMLID_9_" class="st2" x1="466.6" y1="-249.8" x2="475.1" y2="-230.6"/>
	<line id="XMLID_14_" class="st2" x1="439.5" y1="-236.2" x2="458.5" y2="-203.3"/>
	<line id="XMLID_13_" class="st2" x1="414" y1="-219.6" x2="426.4" y2="-202.7"/>
	<line id="XMLID_12_" class="st2" x1="390.5" y1="-200.5" x2="404.5" y2="-184.9"/>
	<line id="XMLID_11_" class="st2" x1="369" y1="-179" x2="384.6" y2="-165"/>
	<line id="XMLID_10_" class="st2" x1="350" y1="-155.4" x2="366.9" y2="-143.1"/>
	<line id="XMLID_19_" class="st2" x1="333.3" y1="-130.1" x2="366.2" y2="-111.1"/>
	<line id="XMLID_18_" class="st2" x1="319.5" y1="-103" x2="338.7" y2="-94.5"/>
	<line id="XMLID_17_" class="st2" x1="308.7" y1="-74.7" x2="328.7" y2="-68.2"/>
	<line id="XMLID_16_" class="st2" x1="300.9" y1="-45.4" x2="321.4" y2="-41"/>
	<line id="XMLID_15_" class="st2" x1="296.2" y1="-15.4" x2="317" y2="-13.2"/>
	<line id="XMLID_24_" class="st2" x1="294" y1="14.5" x2="332" y2="14.5"/>
	<line id="XMLID_23_" class="st2" x1="296" y1="45.2" x2="316.9" y2="43"/>
	<line id="XMLID_22_" class="st2" x1="300.8" y1="75.2" x2="321.3" y2="70.8"/>
	<line id="XMLID_21_" class="st2" x1="308.7" y1="104.5" x2="328.6" y2="98"/>
	<line id="XMLID_20_" class="st2" x1="319.6" y1="132.8" x2="338.8" y2="124.3"/>
	<line id="XMLID_29_" class="st2" x1="332.6" y1="159.8" x2="365.5" y2="140.8"/>
	<line id="XMLID_28_" class="st2" x1="349.7" y1="185.3" x2="366.7" y2="173"/>
	<line id="XMLID_27_" class="st2" x1="368.8" y1="208.9" x2="384.4" y2="194.9"/>
	<line id="XMLID_26_" class="st2" x1="390.3" y1="230.4" x2="404.4" y2="214.7"/>
	<line id="XMLID_25_" class="st2" x1="413.9" y1="249.4" x2="426.3" y2="232.4"/>
	<line id="XMLID_34_" class="st2" x1="438.7" y1="266.2" x2="457.7" y2="233.3"/>
	<line id="XMLID_33_" class="st2" x1="466.3" y1="279.9" x2="474.8" y2="260.7"/>
	<line id="XMLID_32_" class="st2" x1="494.7" y1="290.7" x2="501.1" y2="270.7"/>
	<line id="XMLID_31_" class="st2" x1="524" y1="298.5" x2="528.4" y2="278"/>
	<line id="XMLID_30_" class="st2" x1="554" y1="303.2" x2="556.2" y2="282.3"/>
	<line id="XMLID_39_" class="st2" x1="583.5" y1="305" x2="583.5" y2="267"/>
	<line id="XMLID_38_" class="st2" x1="614.5" y1="303.4" x2="612.3" y2="282.5"/>
	<line id="XMLID_37_" class="st2" x1="644.5" y1="298.6" x2="640.1" y2="278.1"/>
	<line id="XMLID_36_" class="st2" x1="673.8" y1="290.7" x2="667.3" y2="270.8"/>
	<line id="XMLID_35_" class="st2" x1="702.2" y1="279.8" x2="693.6" y2="260.6"/>
	<line id="XMLID_44_" class="st2" x1="728.6" y1="266.6" x2="709.6" y2="233.7"/>
	<line id="XMLID_43_" class="st2" x1="754.7" y1="249.7" x2="742.3" y2="232.7"/>
	<line id="XMLID_42_" class="st2" x1="778.3" y1="230.6" x2="764.2" y2="214.9"/>
	<line id="XMLID_41_" class="st2" x1="799.7" y1="209.1" x2="784.1" y2="195"/>
	<line id="XMLID_40_" class="st2" x1="818.8" y1="185.4" x2="801.8" y2="173.1"/>
	<line id="XMLID_49_" class="st2" x1="835.1" y1="160.8" x2="802.2" y2="141.8"/>
	<line id="XMLID_48_" class="st2" x1="849.2" y1="133.1" x2="830" y2="124.5"/>
	<line id="XMLID_47_" class="st2" x1="860" y1="104.7" x2="840.1" y2="98.2"/>
	<line id="XMLID_46_" class="st2" x1="867.9" y1="75.4" x2="847.3" y2="71"/>
	<line id="XMLID_45_" class="st2" x1="872.6" y1="45.4" x2="851.7" y2="43.2"/>
	<line id="XMLID_54_" class="st2" x1="874" y1="15.5" x2="836" y2="15.5"/>
	<line id="XMLID_53_" class="st2" x1="872.8" y1="-15.2" x2="851.9" y2="-13"/>
	<line id="XMLID_52_" class="st2" x1="868" y1="-45.1" x2="847.4" y2="-40.8"/>
	<line id="XMLID_51_" class="st2" x1="860.1" y1="-74.4" x2="840.1" y2="-68"/>
	<line id="XMLID_50_" class="st2" x1="849.1" y1="-102.8" x2="830" y2="-94.2"/>
	<line id="XMLID_59_" class="st2" x1="835.4" y1="-129.4" x2="802.5" y2="-110.4"/>
	<line id="XMLID_58_" class="st2" x1="819" y1="-155.3" x2="802" y2="-143"/>
	<line id="XMLID_57_" class="st2" x1="799.9" y1="-178.9" x2="784.3" y2="-164.8"/>
	<line id="XMLID_56_" class="st2" x1="778.4" y1="-200.3" x2="764.3" y2="-184.7"/>
	<line id="XMLID_55_" class="st2" x1="754.8" y1="-219.4" x2="742.4" y2="-202.4"/>
	<line id="XMLID_64_" class="st2" x1="729.6" y1="-235.6" x2="710.6" y2="-202.7"/>
	<line id="XMLID_63_" class="st2" x1="702.4" y1="-249.8" x2="693.9" y2="-230.6"/>
	<line id="XMLID_62_" class="st2" x1="674.1" y1="-260.7" x2="667.6" y2="-240.7"/>
	<line id="XMLID_61_" class="st2" x1="644.7" y1="-268.5" x2="640.4" y2="-247.9"/>
	<line id="XMLID_60_" class="st2" x1="614.7" y1="-273.2" x2="612.6" y2="-252.3"/>
</g>
<g id="Layer_3" class="st0">
	<line id="XMLID_4_" class="st3" x1="584.5" y1="-25" x2="584.5" y2="-33"/>
	<line id="XMLID_66_" class="st3" x1="580.3" y1="-24.7" x2="579.5" y2="-32.7"/>
	<line id="XMLID_67_" class="st3" x1="576.2" y1="-24" x2="574.5" y2="-31.9"/>
	<line id="XMLID_68_" class="st3" x1="572.2" y1="-22.9" x2="569.7" y2="-30.5"/>
	<line id="XMLID_69_" class="st3" x1="568.3" y1="-21.4" x2="565" y2="-28.7"/>
	<line id="XMLID_70_" class="st3" x1="564.5" y1="-19.4" x2="560.5" y2="-26.4"/>
	<line id="XMLID_71_" class="st3" x1="561.1" y1="-17.1" x2="556.3" y2="-23.6"/>
	<line id="XMLID_72_" class="st3" x1="557.8" y1="-14.5" x2="552.5" y2="-20.4"/>
	<line id="XMLID_73_" class="st3" x1="554.9" y1="-11.5" x2="548.9" y2="-16.8"/>
	<line id="XMLID_74_" class="st3" x1="552.3" y1="-8.2" x2="545.8" y2="-12.9"/>
	<line id="XMLID_75_" class="st3" x1="550" y1="-4.6" x2="543.1" y2="-8.6"/>
	<line id="XMLID_76_" class="st3" x1="548.2" y1="-0.9" x2="540.9" y2="-4.2"/>
	<line id="XMLID_77_" class="st3" x1="546.7" y1="3" x2="539.1" y2="0.6"/>
	<line id="XMLID_78_" class="st3" x1="545.7" y1="7.1" x2="537.8" y2="5.4"/>
	<line id="XMLID_79_" class="st3" x1="545.1" y1="11.2" x2="537.1" y2="10.4"/>
	<line id="XMLID_80_" class="st3" x1="555" y1="15.5" x2="537" y2="15.5"/>
	<line id="XMLID_81_" class="st3" x1="545.3" y1="19.7" x2="537.3" y2="20.5"/>
	<line id="XMLID_82_" class="st3" x1="546" y1="23.8" x2="538.1" y2="25.4"/>
	<line id="XMLID_83_" class="st3" x1="547.1" y1="27.8" x2="539.5" y2="30.3"/>
	<line id="XMLID_84_" class="st3" x1="548.6" y1="31.7" x2="541.3" y2="34.9"/>
	<line id="XMLID_85_" class="st3" x1="550.6" y1="35.4" x2="543.7" y2="39.4"/>
	<line id="XMLID_86_" class="st3" x1="552.9" y1="38.9" x2="546.4" y2="43.6"/>
	<line id="XMLID_87_" class="st3" x1="555.6" y1="42.1" x2="549.6" y2="47.4"/>
	<line id="XMLID_88_" class="st3" x1="558.6" y1="45" x2="553.2" y2="50.9"/>
	<line id="XMLID_89_" class="st3" x1="561.8" y1="47.6" x2="557.1" y2="54"/>
	<line id="XMLID_90_" class="st3" x1="565.4" y1="49.8" x2="561.4" y2="56.7"/>
	<line id="XMLID_91_" class="st3" x1="569.1" y1="51.7" x2="565.9" y2="59"/>
	<line id="XMLID_92_" class="st3" x1="573" y1="53.1" x2="570.5" y2="60.7"/>
	<line id="XMLID_93_" class="st3" x1="577.1" y1="54.1" x2="575.4" y2="62"/>
	<line id="XMLID_94_" class="st3" x1="581.2" y1="54.7" x2="580.4" y2="62.7"/>
	<line id="XMLID_95_" class="st3" x1="585.5" y1="55" x2="585.5" y2="63"/>
	<line id="XMLID_96_" class="st3" x1="589.7" y1="54.7" x2="590.5" y2="62.7"/>
	<line id="XMLID_97_" class="st3" x1="593.8" y1="54" x2="595.5" y2="61.8"/>
	<line id="XMLID_98_" class="st3" x1="597.8" y1="52.9" x2="600.3" y2="60.5"/>
	<line id="XMLID_99_" class="st3" x1="601.7" y1="51.3" x2="605" y2="58.6"/>
	<line id="XMLID_100_" class="st3" x1="605.4" y1="49.3" x2="609.4" y2="56.3"/>
	<line id="XMLID_101_" class="st3" x1="608.9" y1="47" x2="613.6" y2="53.5"/>
	<line id="XMLID_102_" class="st3" x1="612.1" y1="44.3" x2="617.4" y2="50.3"/>
	<line id="XMLID_103_" class="st3" x1="615" y1="41.3" x2="621" y2="46.7"/>
	<line id="XMLID_104_" class="st3" x1="617.6" y1="38" x2="624.1" y2="42.7"/>
	<line id="XMLID_105_" class="st3" x1="619.8" y1="34.5" x2="626.7" y2="38.5"/>
	<line id="XMLID_106_" class="st3" x1="621.7" y1="30.7" x2="629" y2="34"/>
	<line id="XMLID_107_" class="st3" x1="623.1" y1="26.8" x2="630.7" y2="29.3"/>
	<line id="XMLID_108_" class="st3" x1="624.1" y1="22.7" x2="631.9" y2="24.4"/>
	<line id="XMLID_109_" class="st3" x1="624.7" y1="18.6" x2="632.7" y2="19.4"/>
	<line id="XMLID_110_" class="st3" x1="615" y1="14.5" x2="633" y2="14.5"/>
	<line id="XMLID_111_" class="st3" x1="624.7" y1="10.3" x2="632.7" y2="9.5"/>
	<line id="XMLID_112_" class="st3" x1="624" y1="6.2" x2="631.8" y2="4.5"/>
	<line id="XMLID_113_" class="st3" x1="622.9" y1="2.1" x2="630.5" y2="-0.3"/>
	<line id="XMLID_114_" class="st3" x1="621.3" y1="-1.8" x2="628.6" y2="-5"/>
	<line id="XMLID_115_" class="st3" x1="619.4" y1="-5.5" x2="626.3" y2="-9.5"/>
	<line id="XMLID_116_" class="st3" x1="617" y1="-9" x2="623.5" y2="-13.7"/>
	<line id="XMLID_117_" class="st3" x1="614.3" y1="-12.2" x2="620.3" y2="-17.6"/>
	<line id="XMLID_118_" class="st3" x1="611.3" y1="-15.1" x2="616.7" y2="-21.1"/>
	<line id="XMLID_119_" class="st3" x1="608" y1="-17.7" x2="612.7" y2="-24.2"/>
	<line id="XMLID_120_" class="st3" x1="604.5" y1="-20" x2="608.5" y2="-26.9"/>
	<line id="XMLID_121_" class="st3" x1="600.7" y1="-21.8" x2="604" y2="-29.1"/>
	<line id="XMLID_122_" class="st3" x1="596.8" y1="-23.3" x2="599.3" y2="-30.9"/>
	<line id="XMLID_123_" class="st3" x1="592.7" y1="-24.3" x2="594.4" y2="-32.1"/>
	<line id="XMLID_124_" class="st3" x1="588.6" y1="-24.9" x2="589.4" y2="-32.9"/>
	<path id="XMLID_126_" class="st3" d="M529,15c0-30.8,25-55.9,55.9-55.9"/>
	<path id="XMLID_65_" class="st3" d="M640.7,15c0,30.8-25,55.9-55.9,55.9"/>
</g>
</svg>
