<?xml version="1.0" encoding="utf-8"?>
<!-- Generator: Adobe Illustrator 19.0.0, SVG Export Plug-In . SVG Version: 6.00 Build 0)  -->
<!DOCTYPE svg PUBLIC "-//W3C//DTD SVG 1.1//EN" "http://www.w3.org/Graphics/SVG/1.1/DTD/svg11.dtd">
<svg version="1.1" xmlns="http://www.w3.org/2000/svg" xmlns:xlink="http://www.w3.org/1999/xlink" x="0px" y="0px"
	 viewBox="0 0 200 100" style="enable-background:new 0 0 200 100;" xml:space="preserve">
<style type="text/css">
	.st0{display:none;}
	.st1{display:inline;fill:#FFFFFF;}
	.st2{fill:#FFFFFF;}
</style>
<g id="Layer_1" class="st0">
	<path id="XMLID_8_" class="st1" d="M200,46h-53.7l-45-45.1L52.6,49.7l48.8,48.9L146.1,54H200V46z M101.3,87.9L63.1,49.6l38.2-38.2
		l38.2,38.2L101.3,87.9z"/>
</g>
<g id="Layer_2">
	<polygon id="XMLID_2_" class="st2" points="80.4,75 55.4,50 80.4,25 66.1,25 41.1,50 66.1,75 	"/>
	<polygon id="XMLID_4_" class="st2" points="109.7,75 84.8,50 109.7,25 95.4,25 70.4,50 95.4,75 	"/>
	<polygon id="XMLID_5_" class="st2" points="139.1,75 114.1,50 139.1,25 124.8,25 99.8,50 124.8,75 	"/>
	<polygon id="XMLID_9_" class="st2" points="168.4,75 143.5,50 168.4,25 154.1,25 129.1,50 154.1,75 	"/>
	<polygon id="XMLID_10_" class="st2" points="197.8,75 172.8,50 197.8,25 183.4,25 158.5,50 183.4,75 	"/>
</g>
</svg>
