<?xml version="1.0" encoding="utf-8"?>
<!-- Generator: Adobe Illustrator 19.0.0, SVG Export Plug-In . SVG Version: 6.00 Build 0)  -->
<!DOCTYPE svg PUBLIC "-//W3C//DTD SVG 1.1//EN" "http://www.w3.org/Graphics/SVG/1.1/DTD/svg11.dtd">
<svg version="1.1" xmlns="http://www.w3.org/2000/svg" xmlns:xlink="http://www.w3.org/1999/xlink" x="0px" y="0px"
	 viewBox="0 0 200 100" style="enable-background:new 0 0 200 100;" xml:space="preserve">
<style type="text/css">
	.st0{display:none;}
	.st1{display:inline;fill:#FFFFFF;}
	.st2{fill:#FFFFFF;}
</style>
<g id="Layer_1" class="st0">
	<path id="XMLID_8_" class="st1" d="M200,46h-53.7l-45-45.1L52.6,49.7l48.8,48.9L146.1,54H200V46z M101.3,87.9L63.1,49.6l38.2-38.2
		l38.2,38.2L101.3,87.9z"/>
</g>
<g id="Layer_2">
	<polygon id="XMLID_2_" class="st2" points="119.8,25 144.8,50 119.8,75 134.1,75 159.1,50 134.1,25 	"/>
	<polygon id="XMLID_4_" class="st2" points="90.4,25 115.4,50 90.4,75 104.8,75 129.7,50 104.8,25 	"/>
	<polygon id="XMLID_5_" class="st2" points="61.1,25 86.1,50 61.1,75 75.4,75 100.4,50 75.4,25 	"/>
	<polygon id="XMLID_9_" class="st2" points="31.8,25 56.7,50 31.8,75 46.1,75 71.1,50 46.1,25 	"/>
	<polygon id="XMLID_10_" class="st2" points="2.4,25 27.4,50 2.4,75 16.8,75 41.7,50 16.8,25 	"/>
</g>
</svg>
