<?xml version="1.0" encoding="utf-8"?>
<!-- Generator: Adobe Illustrator 19.0.0, SVG Export Plug-In . SVG Version: 6.00 Build 0)  -->
<!DOCTYPE svg PUBLIC "-//W3C//DTD SVG 1.1//EN" "http://www.w3.org/Graphics/SVG/1.1/DTD/svg11.dtd">
<svg version="1.1" id="Layer_1" xmlns="http://www.w3.org/2000/svg" xmlns:xlink="http://www.w3.org/1999/xlink" x="0px" y="0px"
	 viewBox="0 0 37 37" style="enable-background:new 0 0 37 37;" xml:space="preserve">
<style type="text/css">
	.st0{fill:#151515;}
</style>
<g id="XMLID_2_">
	<path id="XMLID_3_" class="st0" d="M23,21c-0.1,0.3-0.2,0.5-0.2,0.8c-0.1,0.3-0.1,0.5-0.1,0.7s0,0.4,0.1,0.5
		c0.1,0.1,0.2,0.2,0.5,0.2c0.5,0,1-0.2,1.5-0.5c0.5-0.3,0.9-0.8,1.3-1.4c0.4-0.6,0.7-1.3,1-2.2c0.2-0.8,0.4-1.7,0.4-2.7
		c0-1.2-0.2-2.3-0.7-3.2c-0.4-0.9-1.1-1.7-1.8-2.4c-0.8-0.7-1.7-1.2-2.7-1.5c-1-0.3-2.1-0.5-3.3-0.5c-1.4,0-2.6,0.2-3.7,0.7
		c-1.1,0.5-2.1,1.2-2.9,2c-0.8,0.9-1.4,1.9-1.9,3c-0.4,1.2-0.7,2.4-0.7,3.7c0,1.5,0.2,2.9,0.7,4.2c0.5,1.3,1.1,2.3,2,3.2
		c0.8,0.9,1.8,1.5,3,2s2.4,0.7,3.7,0.7c1.4,0,2.7-0.3,4-0.8c1.3-0.6,2.3-1.3,3.2-2.3h2.2c-1,1.7-2.4,2.9-4,3.8
		c-1.7,0.9-3.5,1.4-5.5,1.4c-1.6,0-3.2-0.3-4.6-0.9c-1.4-0.6-2.7-1.4-3.8-2.5c-1.1-1.1-1.9-2.4-2.5-3.9c-0.6-1.5-0.9-3.2-0.9-5
		c0-1.6,0.3-3.1,0.9-4.5c0.6-1.4,1.5-2.6,2.5-3.6s2.3-1.9,3.7-2.4c1.4-0.6,2.9-0.9,4.5-0.9c1.4,0,2.8,0.2,4,0.7
		c1.3,0.5,2.4,1.1,3.4,1.9c1,0.8,1.8,1.8,2.3,3c0.6,1.1,0.9,2.4,0.9,3.8c0,1.6-0.3,3-0.8,4.2c-0.5,1.2-1.2,2.2-2,3
		c-0.8,0.8-1.6,1.4-2.5,1.8c-0.9,0.4-1.6,0.6-2.3,0.6c-0.5,0-0.9-0.2-1.3-0.5c-0.4-0.3-0.6-0.8-0.6-1.4h-0.1c-0.4,0.5-1,0.9-1.6,1.3
		c-0.6,0.4-1.3,0.5-2,0.5c-0.7,0-1.3-0.1-1.8-0.4s-1.1-0.6-1.5-1.1c-0.4-0.5-0.7-1-1-1.6c-0.2-0.6-0.3-1.2-0.3-1.9c0-1,0.2-2,0.5-3
		c0.3-1,0.8-1.9,1.4-2.6c0.6-0.8,1.3-1.4,2.2-1.9c0.9-0.5,1.8-0.7,2.8-0.7c0.7,0,1.4,0.2,2,0.5c0.6,0.4,1.1,0.9,1.5,1.7l0.6-1.8h2.2
		L23,21z M17.3,23c0.6,0,1.2-0.2,1.7-0.6c0.5-0.4,1-0.8,1.4-1.4c0.4-0.6,0.7-1.2,0.9-1.8c0.2-0.7,0.3-1.3,0.3-1.9
		c0-0.4-0.1-0.7-0.2-1.1c-0.1-0.3-0.3-0.6-0.5-0.9c-0.2-0.3-0.5-0.5-0.8-0.6c-0.3-0.1-0.6-0.2-1-0.2c-0.7,0-1.3,0.2-1.8,0.5
		c-0.5,0.4-1,0.8-1.4,1.4c-0.4,0.5-0.7,1.1-0.9,1.8c-0.2,0.7-0.3,1.3-0.3,1.9c0,0.8,0.2,1.5,0.7,2.1C15.9,22.7,16.5,23,17.3,23z"/>
</g>
</svg>
