<?xml version="1.0" encoding="utf-8"?>
<!-- Generator: Adobe Illustrator 19.0.0, SVG Export Plug-In . SVG Version: 6.00 Build 0)  -->
<!DOCTYPE svg PUBLIC "-//W3C//DTD SVG 1.1//EN" "http://www.w3.org/Graphics/SVG/1.1/DTD/svg11.dtd">
<svg version="1.1" xmlns="http://www.w3.org/2000/svg" xmlns:xlink="http://www.w3.org/1999/xlink" x="0px" y="0px"
	 viewBox="0 0 150 150" style="enable-background:new 0 0 150 150;" xml:space="preserve">
<style type="text/css">
	.st0{fill:none;stroke:#999999;stroke-width:2.619;stroke-miterlimit:10;}
	.st1{display:none;}
	.st2{display:inline;fill:#999999;}
	.st3{fill-rule:evenodd;clip-rule:evenodd;fill:#999999;}
</style>
<g id="Layer_1">
	<circle id="XMLID_4_" class="st0" cx="75" cy="75" r="60.2"/>
</g>
<g id="Layer_2" class="st1">
	<path id="XMLID_6_" class="st2" d="M98.2,98.2H51.8l0-2.4c0-4.9,0.4-7.7,6.1-9c6.5-1.5,12.9-2.8,9.8-8.5
		c-9.1-16.8-2.6-26.4,7.2-26.4c9.6,0,16.3,9.2,7.2,26.4c-3,5.7,3.2,7,9.8,8.5c5.8,1.3,6.1,4.1,6.1,9C98.2,95.8,98.2,98.2,98.2,98.2z
		 M116.7,89.6c-5-1.2-9.6-2.2-7.4-6.4c6.8-12.9,1.8-19.8-5.4-19.8c-4.9,0-8.7,3.2-8.7,9c0,15.1,8.8,6.8,8.7,25.8h17.4l0-1.8
		C121.3,92.7,121,90.6,116.7,89.6z M28.7,98.2h17.4c-0.1-18.9,8.7-10.7,8.7-25.8c0-5.8-3.8-9-8.7-9c-7.2,0-12.2,6.9-5.4,19.8
		c2.2,4.2-2.4,5.2-7.4,6.4c-4.3,1-4.6,3.1-4.6,6.8C28.7,96.4,28.7,98.2,28.7,98.2z"/>
</g>
<g id="Layer_3" class="st1">
	<path class="st2" d="M94.7,65.1H55.3v3.3h39.5V65.1z M65.1,71.7h-9.9V75h9.9V71.7z M65.1,78.3h-9.9v3.3h9.9V78.3z M94.7,71.7h-9.9
		V75h9.9V71.7z M94.7,78.3h-9.9v3.3h9.9V78.3z M81.6,71.7H68.4v9.9h13.2V71.7z M75.6,61.8L74,55.4h1.7l0.8,4.4l0.9-4.4H79l0.8,4.3
		l0.8-4.3h1.6l-1.6,6.4h-1.6l-0.8-4.2l-0.9,4.2H75.6z M73.6,60.5h-2.6v-1.3h2.3v-1.3h-2.3v-1.2h2.4v-1.3h-4v6.4h4.1V60.5z
		 M84.4,60.5c-0.5,0-1.1-0.1-1.5-0.4l-0.1,0l-0.3,1.3l0,0c0.3,0.2,1,0.4,1.8,0.4c1.9,0,2.6-1.1,2.6-2c0-0.9-0.5-1.5-1.7-1.9
		c-0.8-0.3-1.1-0.5-1.1-0.8c0-0.3,0.3-0.5,0.8-0.5c0.4,0,0.9,0.1,1.3,0.3l0.1,0l0.4-1.3l0,0c-0.5-0.2-1-0.3-1.6-0.3
		c-1.5,0-2.4,0.8-2.4,1.9c0,0.9,0.6,1.5,1.8,1.9c0.7,0.3,1,0.5,1,0.8C85.3,60.3,84.9,60.5,84.4,60.5z M64.6,57.4l2.3,4.4h1.6v-6.4
		H67v3.9l-2.1-3.9h-1.8v6.4h1.4C64.6,61.8,64.6,57.4,64.6,57.4z M108,87c0.2,0.8-0.9,1.4-1.3,0.5c-0.4-1.1-1.2-5.7-1.8-10.3
		c-0.3-2.5-3.6-2.2-3.6,0.4c0,4,0,7.3,0,13.2c0,5,2.3,5.1,4,10.8c0.3,1,0.5,2,0.7,3.1l8.4-2.9c-2.9-5.7-1.5-10.3-1.2-14
		c0.4-5.1-0.9-5.6-7.2-11.7C106.4,78.7,107.2,83.4,108,87z M44,76c-6.3,6.1-7.6,6.6-7.2,11.7c0.3,3.7,1.7,8.2-1.2,14l8.4,2.9
		c0.2-1,0.5-2.1,0.7-3.1c1.7-5.7,4-5.8,4-10.8c0-5.9,0-9.2,0-13.2c0-2.6-3.3-2.9-3.6-0.4c-0.6,4.6-1.4,9.3-1.8,10.3
		c-0.4,0.9-1.5,0.4-1.3-0.5C42.8,83.4,43.6,78.7,44,76z M52,91.4l0-6.6h46l0,6.6C98,91.4,52,91.4,52,91.4z M45.4,72.3v-22
		c0-2.7,2.2-4.9,4.9-4.9h49.3c2.7,0,4.9,2.2,4.9,4.9v22c-0.5-0.1-0.9-0.2-1.4-0.2c-1.3,0-2.7,0.5-3.6,1.5c-1,1-1.5,2.3-1.5,3.7V52
		H52v25.3c0-1.4-0.6-2.7-1.5-3.7c-1-1-2.3-1.5-3.6-1.5C46.3,72.1,45.9,72.2,45.4,72.3z"/>
</g>
<g id="Layer_4">
	<g id="XMLID_22_">
		<g id="XMLID_229_">
			<path id="XMLID_262_" class="st3" d="M75,62.5c9.1-9.4,24.1-10.4,38.6-2.2c1.4,3.7,2.3,7.8,2.6,11.9
				c-7.3-13.6-31.5-23.7-39.3-4.2c-1.8,4.4-1.8,10.8,0.4,14.8c1.1,2,3.8,2.3,5.4,3.2c1.9,1.1,1,4.5-1.6,3.5
				c-2.2-0.8-4.5-2.7-6.1-0.2v0c-1.7-2.5-3.9-0.6-6.1,0.2c-2.6,1-3.5-2.4-1.6-3.5c1.6-0.9,4.2-1.2,5.4-3.2c2.2-4,2.2-10.4,0.4-14.8
				c-7.8-19.4-32-9.3-39.3,4.2C34,68,34.9,64,36.3,60.3C50.8,52.1,65.8,53.1,75,62.5L75,62.5z"/>
			<path id="XMLID_257_" class="st3" d="M78.4,71.3c3-9.1,17-11.6,27.2-2.3C96.5,77.3,85.2,77.4,78.4,71.3L78.4,71.3z M95.6,67.6
				c0.5,2.5-0.1,5.4-2.2,6.9c3.1-0.6,6.2-1.9,9-4.1C100.4,69,98,68.1,95.6,67.6L95.6,67.6z M86.5,74.5c-2.1-1.4-3.1-4-2.7-6.5
				c-2.2,0.7-4,1.8-5.2,3.2C80.9,72.8,83.6,74,86.5,74.5L86.5,74.5z M94.8,67.4c0.1,0.3,0.1,0.8,0.1,1.8c0,2-1.4,5.3-3.1,5.3
				c-1.7,0-3.1-3.4-3.1-5.3c0-1.6,0.1-1.7,0.2-2.1C90.9,67,92.9,67.1,94.8,67.4L94.8,67.4z"/>
			<path id="XMLID_252_" class="st3" d="M71.6,71.3c-3-9.1-17-11.6-27.2-2.3C53.5,77.3,64.8,77.4,71.6,71.3L71.6,71.3z M54.4,67.6
				c-0.5,2.5,0.1,5.4,2.2,6.9c-3.1-0.6-6.2-1.9-9-4.1C49.6,69,52,68.1,54.4,67.6L54.4,67.6z M63.4,74.5c2.1-1.4,3.1-4,2.7-6.5
				c2.2,0.7,4,1.8,5.2,3.2C69.1,72.8,66.4,74,63.4,74.5L63.4,74.5z M55.2,67.4c-0.1,0.3-0.1,0.8-0.1,1.8c0,2,1.4,5.3,3.1,5.3
				c1.7,0,3.1-3.4,3.1-5.3c0-1.6-0.1-1.7-0.2-2.1C59.1,67,57.1,67.1,55.2,67.4L55.2,67.4z"/>
			<path id="XMLID_248_" class="st3" d="M75,61.5c7-8.8,22.1-11.6,36.4-6.1c-4-7.4-10.2-13.5-17.8-17.3c-6,7.2-12.3,13.7-18.6,19.6
				c-6.3-6-12.5-12.4-18.6-19.6c-7.6,3.8-13.8,9.9-17.8,17.3C52.8,49.9,68,52.6,75,61.5L75,61.5z M68.3,54c-5.2-3.5-12.1-5.1-22-4.4
				c3.1-3.2,5.9-6,9.7-7.8L68.3,54L68.3,54z M81.7,54c5.2-3.5,12.1-5.1,22-4.4c-3.1-3.2-5.9-6-9.7-7.8L81.7,54L81.7,54z"/>
			<path id="XMLID_244_" class="st3" d="M75,55.9l17-18.6c-5.2-2.3-10.9-3.7-16.9-3.7l0,0h0H75l0,0c-6,0-11.9,1.3-17.1,3.7L75,55.9
				L75,55.9z M72,48.3l-8.8-9.6c2.7-1.2,5.7-1.9,8.8-1.9V48.3L72,48.3z M78,48.3l8.8-9.6c-2.7-1.2-5.7-1.9-8.8-1.9V48.3L78,48.3z"/>
			<path id="XMLID_241_" class="st3" d="M74.5,93.9c8.3,0,15.1,2,15.1,4.5c0,2.5-6.7,4.5-15.1,4.5c-8.3,0-15.1-2-15.1-4.5
				C59.4,95.9,66.2,93.9,74.5,93.9L74.5,93.9z M74.5,95.8c5.3,0,9.6,1.2,9.6,2.6s-4.3,2.6-9.6,2.6c-5.3,0-9.6-1.2-9.6-2.6
				S69.2,95.8,74.5,95.8L74.5,95.8z"/>
			<path id="XMLID_238_" class="st3" d="M110.2,73.3c4.7,2.6,4.8,11.2,0.4,19.3c-4.5,8.1-11.9,12.5-16.6,9.9
				c-4.7-2.6-4.8-11.2-0.4-19.3C98.1,75.2,105.5,70.7,110.2,73.3L110.2,73.3z M108.3,76.7c3.6,2,3.7,8.6,0.3,14.8
				c-3.4,6.2-9.1,9.6-12.7,7.6c-3.6-2-3.7-8.6-0.3-14.8C99,78.1,104.7,74.7,108.3,76.7L108.3,76.7z"/>
			<path id="XMLID_235_" class="st3" d="M39.8,73.3c-4.7,2.6-4.8,11.2-0.4,19.3c4.5,8.1,11.9,12.5,16.6,9.9
				c4.7-2.6,4.8-11.2,0.4-19.3C51.8,75.2,44.4,70.7,39.8,73.3L39.8,73.3z M41.6,76.7c-3.6,2-3.7,8.6-0.3,14.8
				c3.4,6.2,9.1,9.6,12.7,7.6c3.6-2,3.7-8.6,0.3-14.8C50.9,78.1,45.2,74.7,41.6,76.7L41.6,76.7z"/>
			<path id="XMLID_234_" class="st3" d="M107.5,78.1c3.1,1.7,3.1,7.5,0.1,12.9c-3,5.4-7.9,8.5-11,6.8c-3.1-1.7-3.1-7.5-0.1-12.9
				C99.6,79.4,104.5,76.4,107.5,78.1L107.5,78.1z"/>
			<path id="XMLID_233_" class="st3" d="M42.4,78.1c-3.1,1.7-3.1,7.5-0.1,12.9c3,5.4,7.9,8.5,11,6.8c3.1-1.7,3.1-7.5,0.1-12.9
				C50.4,79.4,45.4,76.4,42.4,78.1L42.4,78.1z"/>
			<path id="XMLID_232_" class="st3" d="M75,104.4c8.2,0,15.6,2.6,20.3,6.5c-6,3.4-12.9,5.3-20.3,5.3c-7.4,0-14.3-1.9-20.3-5.3
				C59.4,107,66.7,104.4,75,104.4L75,104.4z"/>
			<path id="XMLID_231_" class="st3" d="M93.2,108.4c1.1,0.6,2.1,1.3,3,2.1c12-6.9,20.2-20.3,20.1-36.2
				C114.5,93.5,105.7,103.4,93.2,108.4L93.2,108.4z"/>
			<path id="XMLID_230_" class="st3" d="M56.8,108.4c-1.1,0.6-2.1,1.3-3,2.1c-12-6.9-20.2-20.3-20.1-36.2
				C35.5,93.5,44.3,103.4,56.8,108.4L56.8,108.4z"/>
		</g>
		<path id="XMLID_21_" class="st3" d="M58.3,65.9c0.7,0,1.2,1.2,1.2,2.8c0,1.5-0.5,2.8-1.2,2.8c-0.7,0-1.2-1.2-1.2-2.8
			C57.1,67.1,57.6,65.9,58.3,65.9L58.3,65.9z"/>
		<path id="XMLID_20_" class="st3" d="M92,71.4c-0.7,0-1.2-1.2-1.2-2.8c0-1.5,0.5-2.8,1.2-2.8c0.7,0,1.2,1.2,1.2,2.8
			C93.2,70.2,92.6,71.4,92,71.4L92,71.4z"/>
	</g>
</g>
</svg>
