<?xml version="1.0" encoding="utf-8"?>
<!-- Generator: Adobe Illustrator 19.0.0, SVG Export Plug-In . SVG Version: 6.00 Build 0)  -->
<!DOCTYPE svg PUBLIC "-//W3C//DTD SVG 1.1//EN" "http://www.w3.org/Graphics/SVG/1.1/DTD/svg11.dtd">
<svg version="1.1" xmlns="http://www.w3.org/2000/svg" xmlns:xlink="http://www.w3.org/1999/xlink" x="0px" y="0px"
	 viewBox="0 0 30 30" style="enable-background:new 0 0 30 30;" xml:space="preserve">
<style type="text/css">
	.st0{display:none;}
	.st1{display:inline;fill:#FFFFFF;}
	.st2{fill:#FFFFFF;}
</style>
<g id="Layer_1" class="st0">
	<path class="st1" d="M14,14H3V3h11V14z M27,14H16V3h11V14z M14,27H3V16h11V27z M27,27H16V16h11V27z"/>
</g>
<g id="Layer_2" class="st0">
	<path class="st1" d="M27,6H11V4h16V6z M27,9H11v2h16V9z M27,14H11v2h16V14z M27,19H11v2h16V19z M27,24H11v2h16V24z M9,4H3v6h6V4z
		 M9,12H3v6h6V12z M9,20H3v6h6V20z"/>
</g>
<g id="Layer_3">
	<path class="st2" d="M15,3c-3.1,0-6,2.6-6,5.7c0,4.7,4.8,5.2,6,12.3c1.2-7.1,6-7.6,6-12.3C21,5.6,18.1,3,15,3z M15,11
		c-1.1,0-2-0.9-2-2s0.9-2,2-2s2,0.9,2,2S16.1,11,15,11z M27,27l-6.7-2.4L15,27l-5.6-2.4L3,27l4-9l4-1.6c0.4,0.5,0.7,1.1,1.1,1.7
		l-3.5,1.4l-1.7,3.9l2.7-1l1.5-2.7l-0.6,3l4.2,1.8l0.5-2l0.5,2l4.1-1.9l-0.6-3l1.6,2.9l2.7,1l-1.7-4L18,18.1
		c0.3-0.7,0.7-1.2,1.1-1.7l4,1.6L27,27z"/>
</g>
</svg>
