<?xml version="1.0" encoding="utf-8"?>
<!-- Generator: Adobe Illustrator 19.0.0, SVG Export Plug-In . SVG Version: 6.00 Build 0)  -->
<!DOCTYPE svg PUBLIC "-//W3C//DTD SVG 1.1//EN" "http://www.w3.org/Graphics/SVG/1.1/DTD/svg11.dtd">
<svg version="1.1" id="Layer_1" xmlns="http://www.w3.org/2000/svg" xmlns:xlink="http://www.w3.org/1999/xlink" x="0px" y="0px"
	 viewBox="0 0 30 30" style="enable-background:new 0 0 30 30;" xml:space="preserve">
<style type="text/css">
	.st0{fill:#CCCCCC;}
</style>
<path class="st0" d="M13.8,18.9c-0.4,0.8-0.7,1.6-1,2.4c-1.1-2.6-3.1-4.7-5.9-6.3l-1.5,2.7L3,11.9l6.3-1.1l-1.4,2.6
	C10.5,14.8,12.5,16.7,13.8,18.9z M23.1,15.1l1.5,2.7l2.5-5.9l-6.3-1.1l1.4,2.6c-5.3,3-8.1,7.7-8.1,13.6h2
	C16,21.9,18.4,17.8,23.1,15.1z M15,3l-4,5h3v7.8c0.4,0.4,0.7,0.8,1,1.3c0.3-0.4,0.6-0.9,1-1.3V8h3L15,3z"/>
</svg>
