<?xml version="1.0" encoding="utf-8"?>
<!-- Generator: Adobe Illustrator 19.0.0, SVG Export Plug-In . SVG Version: 6.00 Build 0)  -->
<!DOCTYPE svg PUBLIC "-//W3C//DTD SVG 1.1//EN" "http://www.w3.org/Graphics/SVG/1.1/DTD/svg11.dtd">
<svg version="1.1" id="Layer_1" xmlns="http://www.w3.org/2000/svg" xmlns:xlink="http://www.w3.org/1999/xlink" x="0px" y="0px"
	 viewBox="0 0 30 30" style="enable-background:new 0 0 30 30;" xml:space="preserve">
<style type="text/css">
	.st0{fill:#FFFFFF;}
</style>
<path class="st0" d="M15,6c5.5,0,10,3.6,10,8c0,4.9-5.1,8-9.9,8c-1.9,0-3.4-0.4-4.4-0.6c-1,0.6-1.6,1-4.3,1.8
	C7,21.8,7.1,20.4,7,18.9c-0.8-1-2-2.4-2-4.9C5,9.6,9.5,6,15,6z M15,4C8.7,4,3,8.2,3,14c0,2,0.7,4.1,2,5.6c0.1,1.8-1,4.5-2,6.4
	c2.6-0.5,6.3-1.5,8-2.5c1.4,0.3,2.8,0.5,4.1,0.5C22.2,24,27,19.1,27,14C27,8.2,21.3,4,15,4z M15,18h-5v-1h5V18z M20,15H10v-1h10V15z
	 M20,12H10v-1h10V12z"/>
</svg>
