<?xml version="1.0" encoding="utf-8"?>
<!-- Generator: Adobe Illustrator 19.0.0, SVG Export Plug-In . SVG Version: 6.00 Build 0)  -->
<!DOCTYPE svg PUBLIC "-//W3C//DTD SVG 1.1//EN" "http://www.w3.org/Graphics/SVG/1.1/DTD/svg11.dtd">
<svg version="1.1" id="Layer_1" xmlns="http://www.w3.org/2000/svg" xmlns:xlink="http://www.w3.org/1999/xlink" x="0px" y="0px"
	 viewBox="0 0 30 30" style="enable-background:new 0 0 30 30;" xml:space="preserve">
<style type="text/css">
	.st0{fill:#999999;}
</style>
<path class="st0" d="M27,27H3V9h6v6l6-4v4l6-4v4l6-4V27z M7,11H5v14h20V15l-6,4v-4l-6,4v-4l-6,4V11z M18,23h-2v-3h2V23z M14,23h-2
	v-3h2V23z M10,23H8v-3h2V23z M22,23h-2v-3h2V23z M6,8H5c0.2-2.2,1.8-4,3.5-4C8.7,4,9,4.1,9.2,4.2C9.5,3.5,10.2,3,11,3
	s1.5,0.5,1.8,1.2C13,4.1,13.3,4,13.5,4C14.3,4,15,4.7,15,5.5S14.3,7,13.5,7c-0.2,0-0.5-0.1-0.7-0.2C12.5,7.5,11.8,8,11,8
	C8.7,8,7.3,5,6,8z"/>
</svg>
