<?xml version="1.0" encoding="utf-8"?>
<!-- Generator: Adobe Illustrator 19.0.0, SVG Export Plug-In . SVG Version: 6.00 Build 0)  -->
<!DOCTYPE svg PUBLIC "-//W3C//DTD SVG 1.1//EN" "http://www.w3.org/Graphics/SVG/1.1/DTD/svg11.dtd">
<svg version="1.1" xmlns="http://www.w3.org/2000/svg" xmlns:xlink="http://www.w3.org/1999/xlink" x="0px" y="0px"
	 viewBox="0 0 30 30" style="enable-background:new 0 0 30 30;" xml:space="preserve">
<style type="text/css">
	.st0{display:none;}
	.st1{display:inline;fill:#FFFFFF;}
	.st2{fill:#151515;}
</style>
<g id="Layer_3" class="st0">
	<path id="XMLID_2_" class="st1" d="M9,9H3V3h6V9z M18,3h-6v6h6V3z M27,3h-6v6h6V3z M9,12H3v6h6V12z M18,12h-6v6h6V12z M27,12h-6v6
		h6V12z M9,21H3v6h6V21z M18,21h-6v6h6V21z M27,21h-6v6h6V21z"/>
</g>
<g id="Layer_2">
	<path class="st2" d="M12,15c0-0.6,0.4-1,1-1s1,0.4,1,1s-0.4,1-1,1S12,15.6,12,15z M18.2,15l-1.7,2.6L15.2,16L12,20h10L18.2,15z
		 M24,8V6H3v15h2V8H24z M27,10v14H7V10H27z M25,12H9v10h16V12z"/>
</g>
</svg>
