<?xml version="1.0" encoding="utf-8"?>
<!-- Generator: Adobe Illustrator 19.0.0, SVG Export Plug-In . SVG Version: 6.00 Build 0)  -->
<!DOCTYPE svg PUBLIC "-//W3C//DTD SVG 1.1//EN" "http://www.w3.org/Graphics/SVG/1.1/DTD/svg11.dtd">
<svg version="1.1" id="Layer_1" xmlns="http://www.w3.org/2000/svg" xmlns:xlink="http://www.w3.org/1999/xlink" x="0px" y="0px"
	 viewBox="-134 136 30 30" style="enable-background:new -134 136 30 30;" xml:space="preserve">
<style type="text/css">
	.st0{fill:#FFFFFF;}
</style>
<path class="st0" d="M-126,143h-3v-1h3V143z M-118,149c-1.7,0-3,1.3-3,3s1.3,3,3,3s3-1.3,3-3S-116.3,149-118,149z M-107,144v17h-24
	v-17h5.9c0.7,0,1.3-0.3,1.7-0.9l1.4-2.1h8l1.4,2.1c0.4,0.6,1,0.9,1.7,0.9H-107z M-126,148c0-0.6-0.4-1-1-1s-1,0.4-1,1s0.4,1,1,1
	S-126,148.6-126,148z M-113,152c0-2.8-2.2-5-5-5s-5,2.2-5,5s2.2,5,5,5S-113,154.8-113,152z"/>
</svg>
