<?xml version="1.0" encoding="utf-8"?>
<!-- Generator: Adobe Illustrator 19.0.0, SVG Export Plug-In . SVG Version: 6.00 Build 0)  -->
<!DOCTYPE svg PUBLIC "-//W3C//DTD SVG 1.1//EN" "http://www.w3.org/Graphics/SVG/1.1/DTD/svg11.dtd">
<svg version="1.1" id="Layer_1" xmlns="http://www.w3.org/2000/svg" xmlns:xlink="http://www.w3.org/1999/xlink" x="0px" y="0px"
	 viewBox="0 0 30 30" style="enable-background:new 0 0 30 30;" xml:space="preserve">
<style type="text/css">
	.st0{fill:#FFFFFF;}
</style>
<path class="st0" d="M16.1,11.2c0-0.1,0.3-0.1,0.4-0.1C16.6,11.1,16.4,11.5,16.1,11.2z M14,8.1l0.1,0C14.2,8.1,14,8.2,14,8.2
	c0.1,0.2,0,0.2,0,0.3c0,0.1-0.1,0-0.1,0.1c-0.1,0.1,0.3,0.1,0.3,0.1c0,0-0.4,0.1-0.3,0.2C14,9,14.7,8.7,14.6,8.7
	c0.2-0.1,0-0.1-0.1-0.2c0-0.2-0.1-0.5-0.2-0.7l0.1-0.1C14.1,7.4,14,8.1,14,8.1z M27,15c0,6.6-5.4,12-12,12C8.4,27,3,21.6,3,15
	S8.4,3,15,3C21.6,3,27,8.4,27,15z M18.7,9.6c0-0.1-0.2-0.3-0.4,0c-0.1,0.2-0.1,0.4-0.2,0.6c-0.1,0.2,0.6,0.3,0.6,0.2
	c0-0.3,0.7-0.1,0.9,0c0.2,0.1,0.6-0.2,0.2-0.4c-0.4-0.1-0.5-0.3-0.6-0.5c0,0,0.2-0.2,0.1-0.2C19.1,9.3,18.7,10,18.7,9.6z M25,15
	c0-1-0.2-2.1-0.4-2.6c-0.1-0.2-0.2-0.3-0.4-0.4c-0.3-0.1-1.3,0.6-1.5,0.3c-0.1-0.2-0.3,0.1-0.6,0c-0.1-0.1-0.5-0.5-0.6-0.5
	c-0.3,0.1,0.5,1,0.7,1.1c0.2-0.2,0.9-0.5,1,0c0.3,0.8-0.7,1.7-1.3,2.1c-0.8,0.7-0.6-0.4-1.1-0.9c-0.3-0.2-0.3-0.7-0.5-0.8
	c-0.1-0.1-0.7-0.7-0.7-0.8l0,0.2c-0.1,0.1-0.3-0.3-0.3-0.3c0,0.3,0.5,0.8,0.6,1c0.3,0.4,0.4,1,0.7,1.3c0.2,0.2,0.9,0.9,1,0.9
	c0.2,0,0.8-0.5,0.9-0.4c0.6,0.2-1.5,3.2-1.7,3.6c-0.2,0.3,0.1,1.1,0.1,1.5c0,0.4-0.4,0.6-0.7,0.8c-0.3,0.3-0.3,0.7-0.6,0.9
	c-0.5,0.3-0.9,1.4-1.6,1.3c-0.2,0-1.1,0.4-1.3,0c-0.1-0.3-0.2-0.5-0.4-0.7c-0.1-0.2,0-0.5-0.2-0.7c-0.1-0.2-0.5-0.5-0.5-0.7
	c0-0.2,0.1-0.6,0.3-0.7c0.2-0.1,0-0.5,0-0.7c0-0.4-0.3-0.6-0.5-0.9c-0.4-0.3-0.2-0.5-0.1-1c0-0.2-0.1-0.5-0.4-0.4
	c-0.6,0.2-0.4-0.4-0.8-0.4c-0.3,0-0.5,0.2-0.8,0.3c-0.3,0.1-0.7-0.1-1-0.1c-1.4-0.2-1.9-1.8-1.5-2.9c0-0.2-0.1-0.5,0-0.7
	c0.2-0.4,0.5-0.7,0.8-1c0.2-0.1,0.4-0.1,0.5-0.2c0.3-0.2,0.3-0.6,0.6-0.8c0.4-0.3,0.9-0.3,1.5-0.4c0.3,0,1.3-0.3,1.5-0.1
	c0,0,0.2,0.6,0,0.6c0.4,0,1.1,0.7,1.5,0.6c0.2-0.1,0.1-0.7,0.6-0.4c0.3,0.2,1.4,0.3,1.7,0.1c0.1-0.1,0.2-0.9,0.1-1
	c0.1,0.1-0.6,0.1-0.7,0.1c-0.1,0-0.2,0.1-0.4,0c0.1,0.1-0.6-0.4-0.2-0.7c-0.2,0.1-0.3,0-0.5,0.1c-0.1,0.1,0.1,0.2-0.1,0.3
	c-0.3,0.2-0.5-0.5-0.6-0.6c-0.1-0.1-1-0.7-0.8-0.3l0.8,0.8c0,0-0.2-0.3-0.2-0.1c0.1-0.1,0,0.6-0.1,0.3c-0.1-0.1,0.1-0.1,0-0.3
	c0-0.1-0.2-0.2-0.3-0.2c-0.1-0.2-0.5-0.5-0.6-0.6c-0.1,0-0.8,0.1-0.8,0.1c-0.1,0.1-0.1,0.2-0.2,0.3c-0.1,0.1-0.3,0.1-0.4,0.2
	L14.1,11c-0.1,0.1-0.8,0.3-0.8,0.3c0-0.1-0.5-0.2-0.5-0.3c0-0.2,0.2-0.7,0.2-0.9c0-0.2,1.1,0.3,1.1-0.2c0-0.2,0-0.5-0.3-0.5
	c0.1,0,0.7-0.2,0.8-0.4c0.1-0.2,0.5-0.4,0.7-0.4c0.3,0,0.2-0.4,0.4-0.6c0.1,0.1-0.1,0.4,0.1,0.5c0-0.1,0.4,0.1,0.5,0
	c0.1-0.1,0.7,0,0.6-0.3c-0.1-0.3,0.1-0.2,0.2-0.3c0,0,0.3-0.6,0.4-0.4c0-0.2-0.4,0.1-0.6,0.1c-0.3,0-0.2-0.5-0.1-0.7
	c0.1-0.1-0.2-0.3-0.2,0c0,0.3-0.3,0.6-0.2,1.1c0.1,0.7-0.7-0.2-0.8-0.1c-0.3,0.2-0.5-0.2-0.4-0.4c0.1-0.2,0.5-0.2,0.7-0.5
	c0.1-0.2,0.2-0.4,0.4-0.5c0.5-0.4,0.7-0.1,1.2,0c0.5,0,0.2,0.1,0.1,0.3c-0.1,0.2,0.3,0.3,0.4,0.1c0.1-0.1,0.2-0.3,0.3-0.5
	C18.4,6,19.2,6,18.6,5.7c-0.4-0.2-2-0.7-3.1-0.7c-0.2,0-0.4,0.3-0.6,0.4c-0.4,0.3-1.3,0.9-1.8,0.7c-0.5-0.2-1.6,0.7-1.8,0.7
	c-0.1,0,0-0.6,0.4-0.7c-0.2,0,1.2-0.7,1.2-0.9c0-0.2-2.8,0.8-2.7,1c0.1,0.1,0.3,0.1,0,0.3c-0.2,0.1-0.4,0.8-0.5,0.8
	C9.2,7.6,9.2,6.9,8.6,7.8L7.7,8.1c-1.3,1.4-2.2,3.2-2.6,5.2c0,0.1,0.3,0.2,0.4,0.3c0.1,0.1,0.1,0.7,0.2,0.9c0.1,0.5,0.5,0.7,0.7,1.2
	c0.2,0.3,0.4,0.9,0.3,1.2c0.1-0.2,1.1,0.8,1.2,1c0.4,0.5,0.7,1.1,0.1,1.6c-0.2,0.2,0.3,1.1,0,1.4l-0.4,0.1c-0.4,0.2-0.2,0.8,0,1
	C9.6,23.8,12.2,25,15,25C20.5,25,25,20.5,25,15z M13.5,8.6c0.1-0.1,0.3-0.1,0.3-0.2c0-0.1,0,0,0.1-0.1c0-0.1-0.1-0.1-0.1-0.1
	c-0.1,0-0.1,0.1-0.1,0.1l-0.1,0l-0.1,0.1l0,0l-0.1,0.1C13.3,8.6,13.4,8.7,13.5,8.6z"/>
</svg>
