<?xml version="1.0" encoding="utf-8"?>
<!-- Generator: Adobe Illustrator 19.0.0, SVG Export Plug-In . SVG Version: 6.00 Build 0)  -->
<!DOCTYPE svg PUBLIC "-//W3C//DTD SVG 1.1//EN" "http://www.w3.org/Graphics/SVG/1.1/DTD/svg11.dtd">
<svg version="1.1" xmlns="http://www.w3.org/2000/svg" xmlns:xlink="http://www.w3.org/1999/xlink" x="0px" y="0px"
	 viewBox="0 0 30 30" style="enable-background:new 0 0 30 30;" xml:space="preserve">
<style type="text/css">
	.st0{display:none;}
	.st1{display:inline;fill:#AAAAAA;}
	.st2{fill:#AAAAAA;}
</style>
<g id="Layer_1" class="st0">
	<path id="XMLID_1_" class="st1" d="M22.5,20.2c-2.9-0.7-5.6-1.3-4.3-3.8c4-7.6,1.1-11.6-3.2-11.6c-4.3,0-7.2,4.2-3.2,11.6
		c1.4,2.5-1.5,3.1-4.3,3.8c-2.6,0.6-2.7,1.9-2.7,4.2l0,0.8h20.4l0-0.8C25.2,22.1,25.1,20.8,22.5,20.2z"/>
</g>
<g id="Layer_2">
	<path id="XMLID_3_" class="st2" d="M22,22H8l0-0.7c0-1.5,0.1-2.3,1.8-2.7c2-0.5,3.9-0.9,3-2.6C10.1,10.9,12,8,15,8
		c2.9,0,4.9,2.8,2.2,8c-0.9,1.7,1,2.1,3,2.6c1.7,0.4,1.8,1.2,1.8,2.7C22,21.3,22,22,22,22z M27.6,19.4c-1.5-0.3-2.9-0.7-2.2-1.9
		c2.1-3.9,0.5-6-1.6-6c-1.5,0-2.6,1-2.6,2.7c0,4.5,2.6,2.1,2.6,7.8H29l0-0.5C29,20.3,28.9,19.7,27.6,19.4z M1,22h5.2
		c0-5.7,2.6-3.2,2.6-7.8c0-1.8-1.1-2.7-2.6-2.7c-2.2,0-3.7,2.1-1.6,6c0.7,1.3-0.7,1.6-2.2,1.9c-1.3,0.3-1.4,0.9-1.4,2
		C1,21.4,1,22,1,22z"/>
</g>
</svg>
