<?xml version="1.0" encoding="utf-8"?>
<!-- Generator: Adobe Illustrator 19.0.0, SVG Export Plug-In . SVG Version: 6.00 Build 0)  -->
<!DOCTYPE svg PUBLIC "-//W3C//DTD SVG 1.1//EN" "http://www.w3.org/Graphics/SVG/1.1/DTD/svg11.dtd">
<svg version="1.1" id="Layer_1" xmlns="http://www.w3.org/2000/svg" xmlns:xlink="http://www.w3.org/1999/xlink" x="0px" y="0px"
	 viewBox="0 0 400 250" style="enable-background:new 0 0 400 250;" xml:space="preserve">
<style type="text/css">
	.st0{fill:#666766;}
</style>
<path id="picture-multi-5-icon" class="st0" d="M210.3,129.8c0-3.9,3.2-7.1,7.1-7.1c3.9,0,7.1,3.2,7.1,7.1c0,3.9-3.2,7.1-7.1,7.1
	C213.5,136.9,210.3,133.7,210.3,129.8z M241.2,112.9v50.3h-48V156l-5.5,1.3l-12-48.8l32.8-8.1l-5,1.2l-3.9-8.1l-34,16.4l14.6,30.3
	l3-1.4l2.8,11.4l-5.4,2.6l-21.8-45.3L202,86.8l6.6,13.6l13.7-3.4l3.9,15.9L241.2,112.9L241.2,112.9z M193.2,112.9H221l-2.4-9.7
	l-36.7,9l8,32.7l3.3-0.8V112.9L193.2,112.9z M236.1,118h-37.8v33.6h37.8L236.1,118L236.1,118z M223.2,137.2c-1.7,1.3-3.7,2-5.8,2
	c-2.2,0-4.2-0.7-5.9-2.1c-4.4,1.6-6.3,7.2-6.3,9.8h24.3C229.5,144.4,227.5,138.8,223.2,137.2z"/>
</svg>
