<?xml version="1.0" encoding="utf-8"?>
<!-- Generator: Adobe Illustrator 19.0.0, SVG Export Plug-In . SVG Version: 6.00 Build 0)  -->
<!DOCTYPE svg PUBLIC "-//W3C//DTD SVG 1.1//EN" "http://www.w3.org/Graphics/SVG/1.1/DTD/svg11.dtd">
<svg version="1.1" xmlns="http://www.w3.org/2000/svg" xmlns:xlink="http://www.w3.org/1999/xlink" x="0px" y="0px"
	 viewBox="0 0 30 30" style="enable-background:new 0 0 30 30;" xml:space="preserve">
<style type="text/css">
	.st0{display:none;}
	.st1{display:inline;fill:#999999;}
	.st2{fill:#999999;}
</style>
<g id="Layer_1" class="st0">
	<path class="st1" d="M25.4,16.2v11.6h-6.9v-6.9h-6.9v6.9H4.6V16.2H1.1L15,2.3l13.9,13.9H25.4z M24.2,9.3V3.4h-3.5v2.4L24.2,9.3z"/>
</g>
<g id="Layer_2">
	<path class="st2" d="M21.9,11.6H8.1v1.1h13.7V11.6z M11.6,13.9H8.1V15h3.4V13.9z M11.6,16.1H8.1v1.1h3.4V16.1z M21.9,13.9h-3.4V15
		h3.4V13.9z M21.9,16.1h-3.4v1.1h3.4V16.1z M17.3,13.9h-4.6v3.4h4.6V13.9z M15.2,10.4l-0.5-2.2h0.6l0.3,1.5l0.3-1.5h0.6l0.3,1.5
		l0.3-1.5h0.6l-0.6,2.2h-0.6l-0.3-1.5l-0.3,1.5H15.2z M14.5,9.9h-0.9V9.5h0.8V9h-0.8V8.6h0.8V8.2h-1.4v2.2h1.4V9.9z M18.3,10
		c-0.2,0-0.4,0-0.5-0.1l0,0l-0.1,0.5l0,0c0.1,0.1,0.4,0.1,0.6,0.1c0.7,0,0.9-0.4,0.9-0.7c0-0.3-0.2-0.5-0.6-0.7
		c-0.3-0.1-0.4-0.2-0.4-0.3c0-0.1,0.1-0.2,0.3-0.2c0.2,0,0.3,0,0.4,0.1l0,0L19,8.3l0,0c-0.2-0.1-0.4-0.1-0.6-0.1
		c-0.5,0-0.8,0.3-0.8,0.7c0,0.3,0.2,0.5,0.6,0.7c0.3,0.1,0.3,0.2,0.3,0.3C18.6,9.9,18.5,10,18.3,10z M11.4,8.9l0.8,1.5h0.6V8.2h-0.5
		v1.4l-0.7-1.4h-0.6v2.2h0.5C11.4,10.4,11.4,8.9,11.4,8.9z M26.5,19.2c0.1,0.3-0.3,0.5-0.4,0.2c-0.2-0.4-0.4-2-0.6-3.6
		c-0.1-0.9-1.3-0.8-1.3,0.1c0,1.4,0,2.6,0,4.6c0,1.8,0.8,1.8,1.4,3.8c0.1,0.3,0.2,0.7,0.3,1.1l2.9-1c-1-2-0.5-3.6-0.4-4.9
		c0.1-1.8-0.3-1.9-2.5-4.1C25.9,16.3,26.2,17.9,26.5,19.2z M4.2,15.3c-2.2,2.1-2.6,2.3-2.5,4.1c0.1,1.3,0.6,2.9-0.4,4.9l2.9,1
		c0.1-0.4,0.2-0.7,0.3-1.1c0.6-2,1.4-2,1.4-3.8c0-2.1,0-3.2,0-4.6c0-0.9-1.1-1-1.3-0.1C4.4,17.3,4.1,19,4,19.3
		c-0.1,0.3-0.5,0.1-0.4-0.2C3.8,17.9,4.1,16.3,4.2,15.3z M7,20.7l0-2.3h16l0,2.3C23,20.7,7,20.7,7,20.7z M4.7,14.1V6.4
		c0-0.9,0.8-1.7,1.7-1.7h17.2c0.9,0,1.7,0.8,1.7,1.7v7.6C25.1,14,25,14,24.8,14c-0.5,0-0.9,0.2-1.3,0.5c-0.3,0.3-0.5,0.8-0.5,1.3V7
		H7v8.8c0-0.5-0.2-0.9-0.5-1.3C6.1,14.2,5.7,14,5.2,14C5,14,4.9,14,4.7,14.1z"/>
</g>
</svg>
