<?xml version="1.0" encoding="utf-8"?>
<!-- Generator: Adobe Illustrator 19.0.0, SVG Export Plug-In . SVG Version: 6.00 Build 0)  -->
<!DOCTYPE svg PUBLIC "-//W3C//DTD SVG 1.1//EN" "http://www.w3.org/Graphics/SVG/1.1/DTD/svg11.dtd">
<svg version="1.1" id="Layer_1" xmlns="http://www.w3.org/2000/svg" xmlns:xlink="http://www.w3.org/1999/xlink" x="0px" y="0px"
	 viewBox="0 0 30 30" style="enable-background:new 0 0 30 30;" xml:space="preserve">
<style type="text/css">
	.st0{fill:#999999;}
</style>
<path class="st0" d="M12,22c0,0.6-0.4,1-1,1s-1-0.4-1-1V12c0-0.6,0.4-1,1-1s1,0.4,1,1V22z M16,22c0,0.6-0.4,1-1,1s-1-0.4-1-1V12
	c0-0.6,0.4-1,1-1s1,0.4,1,1V22z M20,22c0,0.6-0.4,1-1,1s-1-0.4-1-1V12c0-0.6,0.4-1,1-1s1,0.4,1,1V22z M25,5v2H5V5h5.7
	c0.9,0,1.6-1.1,1.6-2h5.3c0,0.9,0.7,2,1.6,2H25z M22,9v16H8V9H6v18h18V9H22z"/>
</svg>
