<?xml version="1.0" encoding="utf-8"?>
<!-- Generator: Adobe Illustrator 19.0.0, SVG Export Plug-In . SVG Version: 6.00 Build 0)  -->
<!DOCTYPE svg PUBLIC "-//W3C//DTD SVG 1.1//EN" "http://www.w3.org/Graphics/SVG/1.1/DTD/svg11.dtd">
<svg version="1.1" xmlns="http://www.w3.org/2000/svg" xmlns:xlink="http://www.w3.org/1999/xlink" x="0px" y="0px"
	 viewBox="-383 295 24 24" style="enable-background:new -383 295 24 24;" xml:space="preserve">
<style type="text/css">
	.st0{display:none;}
	.st1{display:inline;fill:#999999;}
	.st2{fill:#999999;}
</style>
<g id="Layer_1" class="st0">
	<path class="st1" d="M-382.1,295.9v22.1h22.1v-22.1H-382.1z M-367.3,302.4h-1.8c-0.6,0-1,0.2-1,0.8v1h2.8l-0.2,2.8h-2.5v7.4h-2.8
		V307h-1.8v-2.8h1.8v-1.8c0-1.9,1-2.8,3.2-2.8h2.3V302.4z"/>
</g>
<g id="Layer_2" class="st0">
	<path class="st1" d="M-381.9,296.1v21.8h21.8v-21.8H-381.9z M-374.6,313.4h-2.7v-10h2.7V313.4z M-376,302.2c-0.9,0-1.6-0.7-1.6-1.6
		s0.7-1.6,1.6-1.6c0.9,0,1.6,0.7,1.6,1.6S-375.1,302.2-376,302.2z M-363.7,313.4h-2.7v-5.1c0-3.1-3.6-2.8-3.6,0v5.1h-2.7v-10h2.7
		v1.6c1.3-2.4,6.4-2.5,6.4,2.3V313.4z"/>
</g>
<g id="Layer_3" class="st0">
	<path class="st1" d="M-381.8,296.2v21.6h21.6v-21.6H-381.8z M-364.8,304.5c0.2,4.2-2.9,8.8-8.4,8.8c-1.7,0-3.2-0.5-4.5-1.3
		c1.6,0.2,3.1-0.3,4.4-1.2c-1.3,0-2.4-0.9-2.8-2.1c0.5,0.1,0.9,0.1,1.3-0.1c-1.4-0.3-2.4-1.6-2.4-2.9c0.4,0.2,0.9,0.4,1.3,0.4
		c-1.3-0.9-1.7-2.6-0.9-4c1.5,1.8,3.6,3,6.1,3.1c-0.4-1.9,1-3.6,2.9-3.6c0.9,0,1.6,0.4,2.2,0.9c0.7-0.1,1.3-0.4,1.9-0.7
		c-0.2,0.7-0.7,1.3-1.3,1.6c0.6-0.1,1.2-0.2,1.7-0.5C-363.7,303.6-364.2,304.1-364.8,304.5z"/>
</g>
<g id="Layer_4" class="st0">
	<path class="st1" d="M-365.4,307.3h-2.8C-368,305.5-365.5,305.7-365.4,307.3z M-374.5,307.9h-2.1v1.9h2.1
		C-372.6,309.8-372.7,307.9-374.5,307.9z M-374.5,304.2h-2v1.9h2.2C-372.8,306.1-372.6,304.2-374.5,304.2z M-359.9,295.9v22.3h-22.3
		v-22.3H-359.9z M-369.1,303.3h4.6v-0.9h-4.6V303.3z M-372.4,306.6c1.8-0.9,1.7-4.2-1.7-4.3h-4.3v9.3h4
		C-370.2,311.6-370.3,307.4-372.4,306.6z M-363.6,307.2c-0.3-1.6-1.4-2.7-3.3-2.7c-1.9,0-3.1,1.2-3.1,3.7c0,2.4,1.3,3.5,3.2,3.5
		c1.9,0,2.9-1.1,3.2-1.9h-2c-0.7,0.8-2.7,0.5-2.6-1.3h4.7C-363.6,307.9-363.6,307.5-363.6,307.2z"/>
</g>
<g id="Layer_5" class="st0">
	<path class="st1" d="M-365.5,302.1v1.3c0,0.3-0.3,0.6-0.6,0.6h-1.3c-0.3,0-0.6-0.3-0.6-0.6v-1.3c0-0.3,0.3-0.6,0.6-0.6h1.3
		C-365.7,301.5-365.5,301.7-365.5,302.1z M-366.5,306.4c0,0.2,0,0.4,0,0.6c0,2.5-2,4.5-4.5,4.5s-4.5-2-4.5-4.5c0-0.2,0-0.4,0-0.6
		c0-0.2,0.1-0.4,0.1-0.6h-1.2v6.2c0,0.3,0.3,0.6,0.6,0.6h9.9c0.3,0,0.6-0.3,0.6-0.6v-6.2h-1.2C-366.6,306-366.6,306.2-366.5,306.4z
		 M-371,309.8c1.6,0,2.8-1.3,2.8-2.8s-1.3-2.8-2.8-2.8s-2.8,1.3-2.8,2.8S-372.6,309.8-371,309.8z M-360,296V318H-382V296H-360z
		 M-363.6,301.3c0-0.9-0.8-1.7-1.7-1.7h-11.3c-0.9,0-1.7,0.8-1.7,1.7v11.3c0,0.9,0.8,1.7,1.7,1.7h11.3c0.9,0,1.7-0.8,1.7-1.7
		C-363.6,312.7-363.6,301.3-363.6,301.3z"/>
</g>
<g id="Layer_6">
	<path class="st2" d="M-381.8,296.2h21.6v21.6h-21.6V296.2z M-368,308.3l1.2-4.8h-1.5l-0.3,1c-0.2-0.5-0.5-0.8-0.9-1
		s-0.8-0.3-1.2-0.3c-0.6,0-1.2,0.1-1.7,0.4c-0.5,0.3-0.9,0.6-1.3,1.1c-0.4,0.4-0.6,1-0.8,1.5c-0.2,0.6-0.3,1.1-0.3,1.7
		c0,0.4,0.1,0.8,0.2,1.2c0.2,0.4,0.4,0.7,0.6,1c0.3,0.3,0.6,0.5,0.9,0.7c0.4,0.2,0.7,0.2,1.1,0.2c0.4,0,0.8-0.1,1.1-0.3
		c0.4-0.2,0.6-0.4,0.9-0.8h0c0,0.3,0.2,0.6,0.4,0.8c0.2,0.2,0.6,0.3,1,0.3c0.3,0,0.7-0.1,1.2-0.3c0.5-0.2,1-0.5,1.4-1s0.9-1,1.2-1.7
		c0.3-0.7,0.5-1.5,0.5-2.5c0-0.9-0.2-1.6-0.5-2.3c-0.4-0.7-0.8-1.3-1.4-1.8c-0.6-0.5-1.3-0.9-2.1-1.1c-0.8-0.3-1.6-0.4-2.4-0.4
		c-1,0-1.9,0.2-2.7,0.5c-0.9,0.4-1.6,0.8-2.2,1.5c-0.6,0.6-1.2,1.4-1.5,2.2c-0.4,0.8-0.6,1.8-0.6,2.7c0,1,0.2,1.9,0.6,2.8
		c0.4,0.8,0.9,1.6,1.5,2.2c0.6,0.6,1.4,1.1,2.3,1.4c0.9,0.3,1.8,0.5,2.8,0.5c1.2,0,2.2-0.3,3.2-0.8c1-0.5,1.8-1.3,2.4-2.2h-1.6
		c-0.5,0.5-1.1,0.9-1.8,1.1c-0.7,0.3-1.4,0.4-2.2,0.4c-0.8,0-1.5-0.1-2.2-0.4c-0.7-0.3-1.3-0.6-1.7-1.1c-0.5-0.5-0.9-1-1.1-1.7
		c-0.3-0.7-0.4-1.4-0.4-2.2c0-0.8,0.1-1.5,0.4-2.2s0.6-1.3,1.1-1.7c0.5-0.5,1-0.9,1.7-1.2c0.6-0.3,1.4-0.4,2.2-0.4
		c0.7,0,1.4,0.1,2,0.3s1.1,0.5,1.6,0.9c0.5,0.4,0.8,0.9,1.1,1.4c0.3,0.6,0.4,1.2,0.4,2c0,0.5-0.1,1-0.2,1.4
		c-0.1,0.4-0.3,0.8-0.5,1.1c-0.2,0.3-0.4,0.5-0.7,0.7c-0.3,0.2-0.5,0.3-0.8,0.3c-0.1,0-0.2,0-0.2-0.1c0-0.1-0.1-0.2-0.1-0.3
		c0-0.1,0-0.3,0-0.4C-368.1,308.6-368.1,308.4-368,308.3z M-373,307.7c0-0.3,0.1-0.6,0.2-0.9s0.3-0.6,0.5-0.9
		c0.2-0.3,0.4-0.5,0.7-0.6s0.6-0.3,0.9-0.3c0.4,0,0.7,0.1,1,0.4c0.3,0.3,0.4,0.7,0.4,1.1c0,0.3-0.1,0.6-0.2,1
		c-0.1,0.3-0.3,0.6-0.5,0.9c-0.2,0.3-0.4,0.5-0.7,0.7c-0.3,0.2-0.6,0.3-0.9,0.3c-0.4,0-0.8-0.2-1-0.5
		C-372.9,308.6-373,308.2-373,307.7z"/>
</g>
</svg>
