<?xml version="1.0" encoding="utf-8"?>
<!-- Generator: Adobe Illustrator 19.0.0, SVG Export Plug-In . SVG Version: 6.00 Build 0)  -->
<!DOCTYPE svg PUBLIC "-//W3C//DTD SVG 1.1//EN" "http://www.w3.org/Graphics/SVG/1.1/DTD/svg11.dtd">
<svg version="1.1" xmlns="http://www.w3.org/2000/svg" xmlns:xlink="http://www.w3.org/1999/xlink" x="0px" y="0px"
	 viewBox="0 0 30 30" style="enable-background:new 0 0 30 30;" xml:space="preserve">
<style type="text/css">
	.st0{display:none;}
	.st1{display:inline;fill:#CCCCCC;}
	.st2{fill:#CCCCCC;}
</style>
<g id="Layer_1" class="st0">
	<path class="st1" d="M13.8,18.9c-0.4,0.8-0.7,1.6-1,2.4c-1.1-2.6-3.1-4.7-5.9-6.3l-1.5,2.7L3,11.9l6.3-1.1l-1.4,2.6
		C10.5,14.8,12.5,16.7,13.8,18.9z M23.1,15.1l1.5,2.7l2.5-5.9l-6.3-1.1l1.4,2.6c-5.3,3-8.1,7.7-8.1,13.6h2
		C16,21.9,18.4,17.8,23.1,15.1z M15,3l-4,5h3v7.8c0.4,0.4,0.7,0.8,1,1.3c0.3-0.4,0.6-0.9,1-1.3V8h3L15,3z"/>
</g>
<g id="Layer_2">
	<path class="st2" d="M8,10V3h13v10h5v14H3V10H8z M8,26v-4H7v4H8z M16,22h-3v4h3V22z M22,22h-1v4h1V22z M24,15h-3v6h2v4h1V15z M19,5
		h-9v20h1v-5h7v5h1V5z M6,25v-4h2v-9H5v13H6z M23,19h-1v-2h1V19z M6,17h1v2H6V17z M14,18h-2v-2h2V18z M17,18h-2v-2h2V18z M7,14v2H6
		v-2H7z M14,15h-2v-2h2V15z M17,15h-2v-2h2V15z M14,12h-2v-2h2V12z M17,12h-2v-2h2V12z M14,9h-2V7h2V9z M17,9h-2V7h2V9z"/>
</g>
</svg>
