<?xml version="1.0" encoding="utf-8"?>
<!-- Generator: Adobe Illustrator 19.0.0, SVG Export Plug-In . SVG Version: 6.00 Build 0)  -->
<!DOCTYPE svg PUBLIC "-//W3C//DTD SVG 1.1//EN" "http://www.w3.org/Graphics/SVG/1.1/DTD/svg11.dtd">
<svg version="1.1" id="Layer_1" xmlns="http://www.w3.org/2000/svg" xmlns:xlink="http://www.w3.org/1999/xlink" x="0px" y="0px"
	 viewBox="0 0 20 20" style="enable-background:new 0 0 20 20;" xml:space="preserve">
<style type="text/css">
	.st0{fill:#999999;}
</style>
<path id="XMLID_2_" class="st0" d="M10,2.2c4.3,0,7.8,3.5,7.8,7.8s-3.5,7.8-7.8,7.8S2.2,14.3,2.2,10S5.7,2.2,10,2.2z M10,0.6
	c-5.2,0-9.4,4.2-9.4,9.4s4.2,9.4,9.4,9.4s9.4-4.2,9.4-9.4S15.2,0.6,10,0.6z M8.4,13.1c0.4-1.4,1.3-3.1,1.4-3.5C10,9,9.7,8.7,8.5,9.8
	L8.2,9.3c1.4-1.5,4.2-1.8,3.2,0.5c-0.6,1.4-1,2.4-1.3,3.2c-0.4,1.1,0.5,0.6,1.4-0.2c0.1,0.2,0.2,0.3,0.3,0.5
	C9.9,15.1,7.7,15.3,8.4,13.1z M12.1,6.7c-0.4,0.4-1,0.3-1.4,0c-0.3-0.4-0.3-0.9,0.1-1.3c0.4-0.4,1-0.3,1.4,0
	C12.6,5.8,12.5,6.4,12.1,6.7z"/>
</svg>
