<?xml version="1.0" encoding="utf-8"?>
<!-- Generator: Adobe Illustrator 19.0.0, SVG Export Plug-In . SVG Version: 6.00 Build 0)  -->
<!DOCTYPE svg PUBLIC "-//W3C//DTD SVG 1.1//EN" "http://www.w3.org/Graphics/SVG/1.1/DTD/svg11.dtd">
<svg version="1.1" id="Layer_1" xmlns="http://www.w3.org/2000/svg" xmlns:xlink="http://www.w3.org/1999/xlink" x="0px" y="0px"
	 viewBox="-464 286 30 30" style="enable-background:new -464 286 30 30;" xml:space="preserve">
<style type="text/css">
	.st0{display:none;}
	.st1{display:inline;fill:#999999;}
	.st2{fill:#FFFFFF;}
</style>
<g id="Layer_1_1_" class="st0">
	<path class="st1" d="M-438.6,302.2v11.6h-6.9v-6.9h-6.9v6.9h-7v-11.6h-3.5l13.9-13.9l13.9,13.9
		C-435.1,302.2-438.6,302.2-438.6,302.2z M-439.8,295.3v-5.9h-3.5v2.4L-439.8,295.3z"/>
</g>
<g id="Layer_2" class="st0">
	<path class="st1" d="M-442.1,297.6h-13.8v1.1h13.7v-1.1H-442.1z M-452.4,299.9h-3.5v1.1h3.4v-1.1H-452.4z M-452.4,302.1h-3.5v1.1
		h3.4v-1.1H-452.4z M-442.1,299.9h-3.4v1.1h3.4V299.9z M-442.1,302.1h-3.4v1.1h3.4V302.1z M-446.7,299.9h-4.6v3.4h4.6V299.9z
		 M-448.8,296.4l-0.5-2.2h0.6l0.3,1.5l0.3-1.5h0.6l0.3,1.5l0.3-1.5h0.6l-0.6,2.2h-0.6l-0.3-1.5l-0.3,1.5H-448.8z M-449.5,295.9h-0.9
		v-0.4h0.8V295h-0.8v-0.4h0.8v-0.4h-1.4v2.2h1.4v-0.5H-449.5z M-445.7,296c-0.2,0-0.4,0-0.5-0.1l0,0l-0.1,0.5l0,0
		c0.1,0.1,0.4,0.1,0.6,0.1c0.7,0,0.9-0.4,0.9-0.7c0-0.3-0.2-0.5-0.6-0.7c-0.3-0.1-0.4-0.2-0.4-0.3c0-0.1,0.1-0.2,0.3-0.2
		s0.3,0,0.4,0.1l0,0l0.1-0.4l0,0c-0.2-0.1-0.4-0.1-0.6-0.1c-0.5,0-0.8,0.3-0.8,0.7c0,0.3,0.2,0.5,0.6,0.7c0.3,0.1,0.3,0.2,0.3,0.3
		C-445.4,295.9-445.5,296-445.7,296z M-452.6,294.9l0.8,1.5h0.6v-2.2h-0.5v1.4l-0.7-1.4h-0.6v2.2h0.5
		C-452.6,296.4-452.6,294.9-452.6,294.9z M-437.5,305.2c0.1,0.3-0.3,0.5-0.4,0.2c-0.2-0.4-0.4-2-0.6-3.6c-0.1-0.9-1.3-0.8-1.3,0.1
		c0,1.4,0,2.6,0,4.6c0,1.8,0.8,1.8,1.4,3.8c0.1,0.3,0.2,0.7,0.3,1.1l2.9-1c-1-2-0.5-3.6-0.4-4.9c0.1-1.8-0.3-1.9-2.5-4.1
		C-438.1,302.3-437.8,303.9-437.5,305.2z M-459.8,301.3c-2.2,2.1-2.6,2.3-2.5,4.1c0.1,1.3,0.6,2.9-0.4,4.9l2.9,1
		c0.1-0.4,0.2-0.7,0.3-1.1c0.6-2,1.4-2,1.4-3.8c0-2.1,0-3.2,0-4.6c0-0.9-1.1-1-1.3-0.1c-0.2,1.6-0.5,3.3-0.6,3.6
		c-0.1,0.3-0.5,0.1-0.4-0.2C-460.2,303.9-459.9,302.3-459.8,301.3z M-457,306.7v-2.3h16v2.3H-457z M-459.3,300.1v-7.7
		c0-0.9,0.8-1.7,1.7-1.7h17.2c0.9,0,1.7,0.8,1.7,1.7v7.6c-0.2,0-0.3,0-0.5,0c-0.5,0-0.9,0.2-1.3,0.5c-0.3,0.3-0.5,0.8-0.5,1.3V293
		h-16v8.8c0-0.5-0.2-0.9-0.5-1.3c-0.4-0.3-0.8-0.5-1.3-0.5C-459,300-459.1,300-459.3,300.1z"/>
</g>
<g id="Layer_3" class="st0">
	<path class="st1" d="M-435.9,302.8v-3.5c-1.8-0.6-2.9-0.8-3.5-2.2l0,0c-0.6-1.4,0.1-2.3,0.9-4l-2.5-2.6c-1.7,0.8-2.6,1.5-4,0.9l0,0
		c-1.4-0.6-1.6-1.7-2.2-3.5h-3.5c-0.6,1.8-0.8,2.9-2.2,3.5l0,0c-1.4,0.6-2.4-0.1-4.1-0.9l-2.5,2.5c0.8,1.7,1.5,2.7,0.9,4
		c-0.6,1.4-1.7,1.6-3.5,2.2v3.5c1.8,0.6,2.9,0.8,3.5,2.2s-0.1,2.4-0.9,4l2.5,2.6c1.7-0.8,2.6-1.5,4-0.9l0,0c1.4,0.6,1.6,1.7,2.2,3.5
		h3.5c0.6-1.8,0.8-2.9,2.2-3.5l0,0c1.4-0.6,2.3,0.1,4,0.9l2.5-2.5c-0.8-1.7-1.5-2.6-0.9-4S-437.7,303.4-435.9,302.8z M-449,305.4
		c-2.4,0-4.4-1.9-4.4-4.4s1.9-4.4,4.4-4.4s4.4,1.9,4.4,4.4S-446.6,305.4-449,305.4z"/>
</g>
<g id="Layer_4" class="st0">
	<path class="st1" d="M-455.4,306.1c2.9-0.7,4.5-1.2,3.2-3.7c-3.8-7.4-1-11.4,3.2-11.4s7.1,4.1,3.1,11.4c-1.3,2.5,0.4,3,3.2,3.7
		c2.5,0.6,2.6,1.8,2.6,3.9v1H-458C-458,308.3-458.2,306.7-455.4,306.1z"/>
</g>
<g id="Layer_5" class="st0">
	<path class="st1" d="M-437.9,310.2h-22.2v-13.8h22.1v13.8H-437.9z M-451.8,291.8c-1,0-1.8,0.8-1.8,1.8v1.8h1.8v-1.3
		c0-0.3,0.2-0.5,0.5-0.5h4.6c0.3,0,0.5,0.2,0.5,0.5v1.4h1.8v-1.9c0-1-0.8-1.8-1.8-1.8H-451.8z"/>
</g>
<g id="Layer_6" class="st0">
	<path class="st1" d="M-449,291c5.5,0,10,4.5,10,10s-4.5,10-10,10s-10-4.5-10-10S-454.5,291-449,291z M-449,289c-6.6,0-12,5.4-12,12
		s5.4,12,12,12s12-5.4,12-12S-442.4,289-449,289z M-443,302h-5v5h-2v-5h-5v-2h5v-5h2v5h5V302z"/>
</g>
<g id="Layer_7" class="st0">
	<path id="XMLID_23_" class="st1" d="M-451,308.5c0,0.8-0.7,1.5-1.5,1.5s-1.5-0.7-1.5-1.5s0.7-1.5,1.5-1.5S-451,307.7-451,308.5z
		 M-447.5,307c-0.8,0-1.5,0.7-1.5,1.5s0.7,1.5,1.5,1.5s1.5-0.7,1.5-1.5S-446.7,307-447.5,307z M-446.2,302l2-7H-461l2.9,7H-446.2z
		 M-441.2,292l-3.4,12h-12.6l0.8,2h13.2l3.5-12h1.9l0.8-2H-441.2z"/>
</g>
<g id="Layer_8">
	<path class="st2" d="M-449,289c-4.2,0-8,3.4-8,7.6c0,4.2,3.5,9.2,8,16.4c4.5-7.2,8-12.2,8-16.4C-441,292.4-444.8,289-449,289z
		 M-449,300c-1.7,0-3-1.3-3-3s1.3-3,3-3s3,1.3,3,3S-447.3,300-449,300z"/>
</g>
</svg>
