<?xml version="1.0" encoding="utf-8"?>
<!-- Generator: Adobe Illustrator 19.0.0, SVG Export Plug-In . SVG Version: 6.00 Build 0)  -->
<!DOCTYPE svg PUBLIC "-//W3C//DTD SVG 1.1//EN" "http://www.w3.org/Graphics/SVG/1.1/DTD/svg11.dtd">
<svg version="1.1" xmlns="http://www.w3.org/2000/svg" xmlns:xlink="http://www.w3.org/1999/xlink" x="0px" y="0px"
	 viewBox="0 0 30 30" style="enable-background:new 0 0 30 30;" xml:space="preserve">
<style type="text/css">
	.st0{display:none;}
	.st1{display:inline;fill:#999999;}
	.st2{fill:#999999;}
</style>
<g id="Layer_1" class="st0">
	<path class="st1" d="M25.4,16.2v11.6h-6.9v-6.9h-6.9v6.9H4.6V16.2H1.1L15,2.3l13.9,13.9H25.4z M24.2,9.3V3.4h-3.5v2.4L24.2,9.3z"/>
</g>
<g id="Layer_2" class="st0">
	<path class="st1" d="M21.9,11.6H8.1v1.1h13.7V11.6z M11.6,13.9H8.1V15h3.4V13.9z M11.6,16.1H8.1v1.1h3.4V16.1z M21.9,13.9h-3.4V15
		h3.4V13.9z M21.9,16.1h-3.4v1.1h3.4V16.1z M17.3,13.9h-4.6v3.4h4.6V13.9z M15.2,10.4l-0.5-2.2h0.6l0.3,1.5l0.3-1.5h0.6l0.3,1.5
		l0.3-1.5h0.6l-0.6,2.2h-0.6l-0.3-1.5l-0.3,1.5H15.2z M14.5,9.9h-0.9V9.5h0.8V9h-0.8V8.6h0.8V8.2h-1.4v2.2h1.4V9.9z M18.3,10
		c-0.2,0-0.4,0-0.5-0.1l0,0l-0.1,0.5l0,0c0.1,0.1,0.4,0.1,0.6,0.1c0.7,0,0.9-0.4,0.9-0.7c0-0.3-0.2-0.5-0.6-0.7
		c-0.3-0.1-0.4-0.2-0.4-0.3c0-0.1,0.1-0.2,0.3-0.2c0.2,0,0.3,0,0.4,0.1l0,0L19,8.3l0,0c-0.2-0.1-0.4-0.1-0.6-0.1
		c-0.5,0-0.8,0.3-0.8,0.7c0,0.3,0.2,0.5,0.6,0.7c0.3,0.1,0.3,0.2,0.3,0.3C18.6,9.9,18.5,10,18.3,10z M11.4,8.9l0.8,1.5h0.6V8.2h-0.5
		v1.4l-0.7-1.4h-0.6v2.2h0.5C11.4,10.4,11.4,8.9,11.4,8.9z M26.5,19.2c0.1,0.3-0.3,0.5-0.4,0.2c-0.2-0.4-0.4-2-0.6-3.6
		c-0.1-0.9-1.3-0.8-1.3,0.1c0,1.4,0,2.6,0,4.6c0,1.8,0.8,1.8,1.4,3.8c0.1,0.3,0.2,0.7,0.3,1.1l2.9-1c-1-2-0.5-3.6-0.4-4.9
		c0.1-1.8-0.3-1.9-2.5-4.1C25.9,16.3,26.2,17.9,26.5,19.2z M4.2,15.3c-2.2,2.1-2.6,2.3-2.5,4.1c0.1,1.3,0.6,2.9-0.4,4.9l2.9,1
		c0.1-0.4,0.2-0.7,0.3-1.1c0.6-2,1.4-2,1.4-3.8c0-2.1,0-3.2,0-4.6c0-0.9-1.1-1-1.3-0.1C4.4,17.3,4.1,19,4,19.3
		c-0.1,0.3-0.5,0.1-0.4-0.2C3.8,17.9,4.1,16.3,4.2,15.3z M7,20.7l0-2.3h16l0,2.3C23,20.7,7,20.7,7,20.7z M4.7,14.1V6.4
		c0-0.9,0.8-1.7,1.7-1.7h17.2c0.9,0,1.7,0.8,1.7,1.7v7.6C25.1,14,25,14,24.8,14c-0.5,0-0.9,0.2-1.3,0.5c-0.3,0.3-0.5,0.8-0.5,1.3V7
		H7v8.8c0-0.5-0.2-0.9-0.5-1.3C6.1,14.2,5.7,14,5.2,14C5,14,4.9,14,4.7,14.1z"/>
</g>
<g id="Layer_3" class="st0">
	<path class="st1" d="M28.1,16.8v-3.5c-1.8-0.6-2.9-0.8-3.5-2.2v0c-0.6-1.4,0.1-2.3,0.9-4L23,4.5c-1.7,0.8-2.6,1.5-4,0.9h0
		c-1.4-0.6-1.6-1.7-2.2-3.5h-3.5c-0.6,1.8-0.8,2.9-2.2,3.5h0C9.7,6,8.7,5.3,7,4.5L4.5,7C5.3,8.7,6,9.7,5.4,11
		c-0.6,1.4-1.7,1.6-3.5,2.2v3.5c1.8,0.6,2.9,0.8,3.5,2.2c0.6,1.4-0.1,2.4-0.9,4L7,25.5c1.7-0.8,2.6-1.5,4-0.9h0
		c1.4,0.6,1.6,1.7,2.2,3.5h3.5c0.6-1.8,0.8-2.9,2.2-3.5h0c1.4-0.6,2.3,0.1,4,0.9l2.5-2.5c-0.8-1.7-1.5-2.6-0.9-4
		C25.1,17.6,26.3,17.4,28.1,16.8z M15,19.4c-2.4,0-4.4-1.9-4.4-4.4s1.9-4.4,4.4-4.4s4.4,1.9,4.4,4.4S17.4,19.4,15,19.4z"/>
</g>
<g id="Layer_4" class="st0">
	<path class="st1" d="M8.6,20.1c2.9-0.7,4.5-1.2,3.2-3.7C8,9,10.8,5,15,5c4.2,0,7.1,4.1,3.1,11.4c-1.3,2.5,0.4,3,3.2,3.7
		c2.5,0.6,2.6,1.8,2.6,3.9v1H6C6,22.3,5.8,20.7,8.6,20.1z"/>
</g>
<g id="Layer_5" class="st0">
	<path class="st1" d="M26.1,24.2H3.9V10.4h22.1V24.2z M12.2,5.8c-1,0-1.8,0.8-1.8,1.8v1.8h1.8V8.1c0-0.3,0.2-0.5,0.5-0.5h4.6
		c0.3,0,0.5,0.2,0.5,0.5v1.4h1.8V7.6c0-1-0.8-1.8-1.8-1.8H12.2z"/>
</g>
<g id="Layer_6" class="st0">
	<path class="st1" d="M15,5c5.5,0,10,4.5,10,10s-4.5,10-10,10S5,20.5,5,15S9.5,5,15,5z M15,3C8.4,3,3,8.4,3,15s5.4,12,12,12
		s12-5.4,12-12S21.6,3,15,3z M21,16h-5v5h-2v-5H9v-2h5V9h2v5h5V16z"/>
</g>
<g id="Layer_7" class="st0">
	<path id="XMLID_23_" class="st1" d="M13,22.5c0,0.8-0.7,1.5-1.5,1.5S10,23.3,10,22.5c0-0.8,0.7-1.5,1.5-1.5S13,21.7,13,22.5z
		 M16.5,21c-0.8,0-1.5,0.7-1.5,1.5s0.7,1.5,1.5,1.5c0.8,0,1.5-0.7,1.5-1.5C18,21.7,17.3,21,16.5,21z M17.8,16l2-7H3l2.9,7
		C5.9,16,17.8,16,17.8,16z M22.8,6l-3.4,12H6.8l0.8,2h13.2l3.5-12h1.9L27,6H22.8z"/>
</g>
<g id="Layer_8">
	<path class="st2" d="M15,3c-4.2,0-8,3.4-8,7.6c0,4.2,3.5,9.2,8,16.4c4.5-7.2,8-12.2,8-16.4C23,6.4,19.2,3,15,3z M15,14
		c-1.7,0-3-1.3-3-3s1.3-3,3-3s3,1.3,3,3S16.7,14,15,14z"/>
</g>
</svg>
