<?xml version="1.0" encoding="utf-8"?>
<!-- Generator: Adobe Illustrator 19.0.0, SVG Export Plug-In . SVG Version: 6.00 Build 0)  -->
<!DOCTYPE svg PUBLIC "-//W3C//DTD SVG 1.1//EN" "http://www.w3.org/Graphics/SVG/1.1/DTD/svg11.dtd">
<svg version="1.1" id="Layer_1" xmlns="http://www.w3.org/2000/svg" xmlns:xlink="http://www.w3.org/1999/xlink" x="0px" y="0px"
	 viewBox="0 0 100 100" style="enable-background:new 0 0 100 100;" xml:space="preserve">
<style type="text/css">
	.st0{fill:#FFFFFF;}
</style>
<path class="st0" d="M50,6.1C25.8,6.1,6.1,25.8,6.1,50S25.8,93.9,50,93.9S93.9,74.2,93.9,50S74.2,6.1,50,6.1z M50,86.6
	c-20.2,0-36.6-16.4-36.6-36.6S29.8,13.4,50,13.4S86.6,29.8,86.6,50S70.2,86.6,50,86.6z M50,17.8c-17.7,0-32.2,14.4-32.2,32.2
	S32.3,82.2,50,82.2S82.2,67.7,82.2,50S67.7,17.8,50,17.8z M50,72.8c-2.5,0-4.6-2-4.6-4.6s2.1-4.6,4.6-4.6c2.5,0,4.6,2,4.6,4.6
	S52.5,72.8,50,72.8z M57.2,51.2c-3.3,3.6-3.5,5.5-3.4,8h-7.3c0-5.4,0.1-7.8,5.2-12.7c2.1-2,3.7-3.6,3.5-6.7c-0.2-2.9-2.7-4.5-5-4.5
	c-2.6,0-5.6,1.9-5.6,7.4h-7.4c0-8.8,5.2-14.4,13.1-14.4c3.8,0,7.1,1.2,9.3,3.5c2.1,2.1,3.2,5,3.1,8.4C62.7,45.2,59.6,48.5,57.2,51.2
	z"/>
</svg>
