<?xml version="1.0" encoding="utf-8"?>
<!-- Generator: Adobe Illustrator 19.0.0, SVG Export Plug-In . SVG Version: 6.00 Build 0)  -->
<!DOCTYPE svg PUBLIC "-//W3C//DTD SVG 1.1//EN" "http://www.w3.org/Graphics/SVG/1.1/DTD/svg11.dtd">
<svg version="1.1" id="Layer_1" xmlns="http://www.w3.org/2000/svg" xmlns:xlink="http://www.w3.org/1999/xlink" x="0px" y="0px"
	 viewBox="0 0 200 50" style="enable-background:new 0 0 200 50;" xml:space="preserve">
<style type="text/css">
	.st0{fill:#222222;}
</style>
<g id="XMLID_21_">
	<g id="XMLID_1_">
		<g id="XMLID_2_">
			<polygon id="XMLID_18_" class="st0" points="3.6,28.6 3.6,19.6 5.9,19.6 5.9,26.6 9.6,26.6 9.6,28.6 			"/>
			<path id="XMLID_3_" class="st0" d="M22.5,21.9l-1.1,3.4h2.3L22.5,21.9z M24.7,28.6l-0.4-1.3h-3.5l-0.4,1.3h-2.6l3.4-9H24l3.4,9
				H24.7z"/>
			<rect id="XMLID_15_" x="3" y="33.6" class="st0" width="24.9" height="2.3"/>
		</g>
		<g id="XMLID_4_">
			<path id="XMLID_5_" class="st0" d="M41.4,27.3c0-5.1,3.8-8.5,8.7-8.5c3.8,0,5.9,2,7,4l-3,1.5c-0.7-1.3-2.2-2.4-4-2.4
				c-2.9,0-5,2.3-5,5.4s2.2,5.4,5,5.4c1.8,0,3.3-1,4-2.4l3,1.5c-1.2,2.1-3.3,4.1-7,4.1C45.2,35.9,41.4,32.4,41.4,27.3z"/>
			<path id="XMLID_7_" class="st0" d="M80.1,29.7h-2.6v5.9H74V19.1h7.7c3.4,0,5.5,2.2,5.5,5.3c0,2.9-1.8,4.5-3.6,4.9l3.7,6.3h-4
				L80.1,29.7z M81.2,22.1h-3.7v4.5h3.7c1.4,0,2.5-0.9,2.5-2.3C83.7,23,82.6,22.1,81.2,22.1z"/>
			<path id="XMLID_10_" class="st0" d="M104.7,19.1h11.7v3h-8.2v3.6h8v3h-8v3.8h8.2v3h-11.7V19.1z M105.6,14.1h2.9l3.3,3.6h-2.2
				L105.6,14.1z"/>
			<path id="XMLID_13_" class="st0" d="M148.3,23.7l-4.6,11.9h-1.5l-4.6-11.9v11.9h-3.5V19.1h4.9l4,10.3l4-10.3h4.9v16.5h-3.5V23.7z
				"/>
			<path id="XMLID_19_" class="st0" d="M169.9,19.1h11.7v3h-8.2v3.6h8v3h-8v3.8h8.2v3h-11.7V19.1z"/>
		</g>
	</g>
	<g id="XMLID_30_">
		<path id="XMLID_31_" class="st0" d="M193.8,22.7H193v1.5h-0.5v-3.8h1.5c0.7,0,1.2,0.4,1.2,1.1c0,0.7-0.5,1-1,1.1l1,1.5h-0.6
			L193.8,22.7z M194,20.9h-1v1.4h1c0.4,0,0.7-0.3,0.7-0.7C194.8,21.2,194.5,20.9,194,20.9z"/>
	</g>
</g>
<path id="XMLID_24_" class="st0" d="M197.2,22.3c0,1.8-1.5,3.3-3.3,3.3s-3.3-1.5-3.3-3.3c0-1.8,1.5-3.3,3.3-3.3
	S197.2,20.5,197.2,22.3z M193.9,19.5c-1.6,0-2.8,1.3-2.8,2.8s1.3,2.8,2.8,2.8s2.8-1.3,2.8-2.8S195.5,19.5,193.9,19.5z"/>
</svg>
