<?xml version="1.0" encoding="utf-8"?>
<!-- Generator: Adobe Illustrator 19.0.0, SVG Export Plug-In . SVG Version: 6.00 Build 0)  -->
<!DOCTYPE svg PUBLIC "-//W3C//DTD SVG 1.1//EN" "http://www.w3.org/Graphics/SVG/1.1/DTD/svg11.dtd">
<svg version="1.1" xmlns="http://www.w3.org/2000/svg" xmlns:xlink="http://www.w3.org/1999/xlink" x="0px" y="0px"
	 viewBox="0 0 20 20" style="enable-background:new 0 0 20 20;" xml:space="preserve">
<style type="text/css">
	.st0{display:none;}
	.st1{display:inline;}
	.st2{fill:#999999;}
</style>
<g id="Layer_1" class="st0">
	<g id="XMLID_2_" class="st1">
		<title>Layer 1</title>
		<g id="layer1">
			<g id="g2275">
				<path id="path2277" marker-end="none" marker-mid="none" marker-start="none" class="st2" d="M0.6,20.1"/>
				<path id="path2279" marker-end="none" marker-mid="none" marker-start="none" class="st2" d="M0.6,20.1"/>
				<path id="path2281" marker-end="none" marker-mid="none" marker-start="none" class="st2" d="M5.3,18.8l3.3-5.7
					c-0.8-0.5-1.4-1.4-1.4-2.4H0.6C0.6,14.2,2.5,17.2,5.3,18.8L5.3,18.8z M19.4,10.7h-6.6c0,1-0.6,1.9-1.4,2.4l3.3,5.7
					C17.5,17.2,19.4,14.2,19.4,10.7z M14.7,2.6c-1.4-0.8-3-1.3-4.7-1.3c-1.7,0-3.3,0.5-4.7,1.3l3.3,5.7C9,8.1,9.5,7.9,10,7.9
					c0.5,0,1,0.1,1.4,0.4L14.7,2.6z"/>
			</g>
		</g>
	</g>
	<title>nuclear symbol outline drawing</title>
</g>
<g id="Layer_2">
	<path id="XMLID_1_" class="st2" d="M9.9,1.4l2.1,6.5h6.9l-5.5,4l2.1,6.5l-5.5-4l-5.5,4l2.1-6.5L1,7.9h6.9L9.9,1.4z"/>
</g>
</svg>
