<?xml version="1.0" encoding="utf-8"?>
<!-- Generator: Adobe Illustrator 19.0.0, SVG Export Plug-In . SVG Version: 6.00 Build 0)  -->
<!DOCTYPE svg PUBLIC "-//W3C//DTD SVG 1.1//EN" "http://www.w3.org/Graphics/SVG/1.1/DTD/svg11.dtd">
<svg version="1.1" xmlns="http://www.w3.org/2000/svg" xmlns:xlink="http://www.w3.org/1999/xlink" x="0px" y="0px"
	 viewBox="0 0 30 30" style="enable-background:new 0 0 30 30;" xml:space="preserve">
<style type="text/css">
	.st0{display:none;}
	.st1{display:inline;fill:#FFFFFF;}
	.st2{fill:#FFFFFF;}
</style>
<g id="Layer_1" class="st0">
	<path class="st1" d="M14,14H3V3h11V14z M27,14H16V3h11V14z M14,27H3V16h11V27z M27,27H16V16h11V27z"/>
</g>
<g id="Layer_2">
	<path class="st2" d="M27,6H11V4h16V6z M27,9H11v2h16V9z M27,14H11v2h16V14z M27,19H11v2h16V19z M27,24H11v2h16V24z M9,4H3v6h6V4z
		 M9,12H3v6h6V12z M9,20H3v6h6V20z"/>
</g>
</svg>
