<?xml version="1.0" encoding="utf-8"?>
<!-- Generator: Adobe Illustrator 19.0.0, SVG Export Plug-In . SVG Version: 6.00 Build 0)  -->
<!DOCTYPE svg PUBLIC "-//W3C//DTD SVG 1.1//EN" "http://www.w3.org/Graphics/SVG/1.1/DTD/svg11.dtd">
<svg version="1.1" xmlns="http://www.w3.org/2000/svg" xmlns:xlink="http://www.w3.org/1999/xlink" x="0px" y="0px"
	 viewBox="-383 295 24 24" style="enable-background:new -383 295 24 24;" xml:space="preserve">
<style type="text/css">
	.st0{display:none;}
	.st1{display:inline;fill:#999999;}
	.st2{fill:#999999;}
</style>
<g id="Layer_1" class="st0">
	<path class="st1" d="M-382.1,295.9v22.1h22.1v-22.1H-382.1z M-367.3,302.4h-1.8c-0.6,0-1,0.2-1,0.8v1h2.8l-0.2,2.8h-2.5v7.4h-2.8
		V307h-1.8v-2.8h1.8v-1.8c0-1.9,1-2.8,3.2-2.8h2.3V302.4z"/>
</g>
<g id="Layer_2">
	<path class="st2" d="M-381.9,296.1v21.8h21.8v-21.8H-381.9z M-374.6,313.4h-2.7v-10h2.7V313.4z M-376,302.2c-0.9,0-1.6-0.7-1.6-1.6
		s0.7-1.6,1.6-1.6c0.9,0,1.6,0.7,1.6,1.6S-375.1,302.2-376,302.2z M-363.7,313.4h-2.7v-5.1c0-3.1-3.6-2.8-3.6,0v5.1h-2.7v-10h2.7
		v1.6c1.3-2.4,6.4-2.5,6.4,2.3V313.4z"/>
</g>
</svg>
