<?xml version="1.0" encoding="utf-8"?>
<!-- Generator: Adobe Illustrator 19.0.0, SVG Export Plug-In . SVG Version: 6.00 Build 0)  -->
<!DOCTYPE svg PUBLIC "-//W3C//DTD SVG 1.1//EN" "http://www.w3.org/Graphics/SVG/1.1/DTD/svg11.dtd">
<svg version="1.1" id="Layer_1" xmlns="http://www.w3.org/2000/svg" xmlns:xlink="http://www.w3.org/1999/xlink" x="0px" y="0px"
	 viewBox="0 0 20 20" style="enable-background:new 0 0 20 20;" xml:space="preserve">
<style type="text/css">
	.st0{fill:#FFFFFF;}
</style>
<path id="XMLID_2_" class="st0" d="M12.2,10c0,1.2-1,2.2-2.2,2.2s-2.2-1-2.2-2.2c0-0.1,0-0.3,0-0.4C8.9,10,10,8.9,9.6,7.8
	c0.1,0,0.3,0,0.4,0C11.2,7.8,12.2,8.8,12.2,10z M10,4.8c-5.6,0-8.9,4.8-8.9,4.8s3.6,5.5,8.9,5.5c5.7,0,8.9-5.5,8.9-5.5
	S15.7,4.8,10,4.8z M10,13.7c-2,0-3.7-1.7-3.7-3.7C6.3,8,8,6.3,10,6.3c2,0,3.7,1.7,3.7,3.7C13.7,12,12,13.7,10,13.7z"/>
</svg>
