<?xml version="1.0" encoding="utf-8"?>
<!-- Generator: Adobe Illustrator 19.0.0, SVG Export Plug-In . SVG Version: 6.00 Build 0)  -->
<!DOCTYPE svg PUBLIC "-//W3C//DTD SVG 1.1//EN" "http://www.w3.org/Graphics/SVG/1.1/DTD/svg11.dtd">
<svg version="1.1" id="Layer_1" xmlns="http://www.w3.org/2000/svg" xmlns:xlink="http://www.w3.org/1999/xlink" x="0px" y="0px"
	 viewBox="0 0 20 20" style="enable-background:new 0 0 20 20;" xml:space="preserve">
<style type="text/css">
	.st0{fill:#999999;}
</style>
<path id="XMLID_2_" class="st0" d="M10,2.7c4.5,0,8.1,2.9,8.1,6.5c0,4-4.2,6.5-8.1,6.5c-1.5,0-2.8-0.3-3.6-0.5
	C5.7,15.7,5.2,16,3,16.7c0.5-1.1,0.6-2.3,0.5-3.5c-0.7-0.8-1.6-2-1.6-4C1.9,5.6,5.5,2.7,10,2.7z M10,1C4.9,1,0.2,4.5,0.2,9.2
	c0,1.6,0.6,3.3,1.6,4.6C1.9,15.2,1,17.4,0.2,19c2.1-0.4,5.1-1.2,6.5-2c1.1,0.2,2.3,0.4,3.3,0.4c5.8,0,9.7-4,9.7-8.1
	C19.8,4.5,15.1,1,10,1z M10,12.4H5.9v-0.8H10V12.4z M14.1,10H5.9V9.2h8.1V10z M14.1,7.6H5.9V6.7h8.1V7.6z"/>
</svg>
