<?xml version="1.0" encoding="utf-8"?>
<!-- Generator: Adobe Illustrator 19.0.0, SVG Export Plug-In . SVG Version: 6.00 Build 0)  -->
<!DOCTYPE svg PUBLIC "-//W3C//DTD SVG 1.1//EN" "http://www.w3.org/Graphics/SVG/1.1/DTD/svg11.dtd">
<svg version="1.1" id="Layer_1" xmlns="http://www.w3.org/2000/svg" xmlns:xlink="http://www.w3.org/1999/xlink" x="0px" y="0px"
	 viewBox="0 0 30 30" style="enable-background:new 0 0 30 30;" xml:space="preserve">
<style type="text/css">
	.st0{opacity:0.5;fill:#FFFFFF;}
</style>
<path class="st0" d="M15,21c1.7,0,3,1.3,3,3s-1.3,3-3,3s-3-1.3-3-3S13.3,21,15,21z M15,12c1.7,0,3,1.3,3,3s-1.3,3-3,3s-3-1.3-3-3
	S13.3,12,15,12z M15,3c1.7,0,3,1.3,3,3s-1.3,3-3,3s-3-1.3-3-3S13.3,3,15,3z"/>
</svg>
