<?xml version="1.0" encoding="utf-8"?>
<!-- Generator: Adobe Illustrator 19.0.0, SVG Export Plug-In . SVG Version: 6.00 Build 0)  -->
<!DOCTYPE svg PUBLIC "-//W3C//DTD SVG 1.1//EN" "http://www.w3.org/Graphics/SVG/1.1/DTD/svg11.dtd">
<svg version="1.1" id="Layer_1" xmlns="http://www.w3.org/2000/svg" xmlns:xlink="http://www.w3.org/1999/xlink" x="0px" y="0px"
	 viewBox="0 0 30 30" style="enable-background:new 0 0 30 30;" xml:space="preserve">
<style type="text/css">
	.st0{fill:#999999;}
</style>
<path class="st0" d="M28.9,25.4L21.4,18c1.1-1.7,1.7-3.8,1.7-5.9c0-6.1-5-11.1-11.1-11.1S0.9,5.9,0.9,12c0,6.1,5,11.1,11.1,11.1
	c2.1,0,4-0.6,5.7-1.6l7.5,7.5C25.2,29.1,28.9,25.4,28.9,25.4z M5.1,12c0-3.8,3.1-7,7-7c3.8,0,7,3.1,7,7c0,3.8-3.1,7-7,7
	C8.2,19,5.1,15.9,5.1,12z"/>
</svg>
