<?xml version="1.0" encoding="utf-8"?>
<!-- Generator: Adobe Illustrator 19.0.0, SVG Export Plug-In . SVG Version: 6.00 Build 0)  -->
<!DOCTYPE svg PUBLIC "-//W3C//DTD SVG 1.1//EN" "http://www.w3.org/Graphics/SVG/1.1/DTD/svg11.dtd">
<svg version="1.1" id="Layer_1" xmlns="http://www.w3.org/2000/svg" xmlns:xlink="http://www.w3.org/1999/xlink" x="0px" y="0px"
	 viewBox="-24 26 30 30" style="enable-background:new -24 26 30 30;" xml:space="preserve">
<style type="text/css">
	.st0{fill:#FFFFFF;}
</style>
<path class="st0" d="M4.9,51.4L-2.6,44c1.1-1.7,1.7-3.8,1.7-5.9C-0.9,32-5.9,27-12,27s-11.1,4.9-11.1,11s5,11.1,11.1,11.1
	c2.1,0,4-0.6,5.7-1.6L1.2,55C1.2,55.1,4.9,51.4,4.9,51.4z M-18.9,38c0-3.8,3.1-7,7-7c3.8,0,7,3.1,7,7c0,3.8-3.1,7-7,7
	S-18.9,41.9-18.9,38z"/>
</svg>
