<?xml version="1.0" encoding="utf-8"?>
<!-- Generator: Adobe Illustrator 19.0.0, SVG Export Plug-In . SVG Version: 6.00 Build 0)  -->
<!DOCTYPE svg PUBLIC "-//W3C//DTD SVG 1.1//EN" "http://www.w3.org/Graphics/SVG/1.1/DTD/svg11.dtd">
<svg version="1.1" xmlns="http://www.w3.org/2000/svg" xmlns:xlink="http://www.w3.org/1999/xlink" x="0px" y="0px"
	 viewBox="0 0 30 30" style="enable-background:new 0 0 30 30;" xml:space="preserve">
<style type="text/css">
	.st0{display:none;}
	.st1{display:inline;}
	.st2{fill:#888888;}
	.st3{display:inline;fill:#888888;}
</style>
<g id="Layer_1" class="st0">
	<g id="Layer_1_1_" class="st1">
		<path class="st2" d="M21,4l-6,4L9,4L3,9v7l12,10l12-10V9L21,4z"/>
	</g>
	<g id="Layer_2">
		<path class="st3" d="M20.9,6.5L25,9.9V15l-10,8.3L5,15.1V9.9l4.1-3.4l5.9,3.9L20.9,6.5z M21,4l-6,4L9,4L3,9v7l12,10l12-10V9L21,4z
			"/>
	</g>
</g>
<g id="Layer_2_1_">
	<path class="st2" d="M8,10c2.8,0,5,2.2,5,5s-2.2,5-5,5s-5-2.2-5-5S5.2,10,8,10z M19.1,22.1C19,22.4,19,22.7,19,23c0,2.2,1.8,4,4,4
		s4-1.8,4-4s-1.8-4-4-4c-1.2,0-2.2,0.5-2.9,1.3l-5.5-2.9c-0.2,0.6-0.5,1.2-0.9,1.8C13.6,19.1,19.1,22.1,19.1,22.1z M27,7
		c0-2.2-1.8-4-4-4s-4,1.8-4,4c0,0.3,0,0.6,0.1,0.9l-5.5,2.9c0.4,0.5,0.7,1.1,0.9,1.8l5.5-2.9c0.7,0.8,1.8,1.3,2.9,1.3
		C25.2,11,27,9.2,27,7z"/>
</g>
</svg>
