<?xml version="1.0" encoding="utf-8"?>
<!-- Generator: Adobe Illustrator 19.0.0, SVG Export Plug-In . SVG Version: 6.00 Build 0)  -->
<!DOCTYPE svg PUBLIC "-//W3C//DTD SVG 1.1//EN" "http://www.w3.org/Graphics/SVG/1.1/DTD/svg11.dtd">
<svg version="1.1" id="Layer_1" xmlns="http://www.w3.org/2000/svg" xmlns:xlink="http://www.w3.org/1999/xlink" x="0px" y="0px"
	 viewBox="0 0 30 30" style="enable-background:new 0 0 30 30;" xml:space="preserve">
<style type="text/css">
	.st0{fill:#FFFFFF;}
</style>
<g>
	<g>
		<path id="twitter-icon_9_" class="st0" d="M28.5,7.2c-1,0.4-2,0.7-3.1,0.8c1.1-0.7,2-1.7,2.4-3c-1,0.6-2.2,1.1-3.4,1.3
			c-1-1-2.4-1.7-3.9-1.7c-3.5,0-6,3.2-5.2,6.6c-4.5-0.2-8.4-2.4-11.1-5.6c-1.4,2.4-0.7,5.6,1.7,7.2c-0.9,0-1.7-0.3-2.4-0.7
			C3.3,14.7,5,17,7.6,17.5c-0.8,0.2-1.6,0.3-2.4,0.1c0.7,2.1,2.7,3.7,5,3.7c-2.3,1.8-5.1,2.6-8,2.2c2.4,1.5,5.2,2.4,8.2,2.4
			c10,0,15.6-8.4,15.3-16C26.8,9.2,27.8,8.3,28.5,7.2z"/>
	</g>
</g>
</svg>
