<?xml version="1.0" encoding="utf-8"?>
<!-- Generator: Adobe Illustrator 19.0.0, SVG Export Plug-In . SVG Version: 6.00 Build 0)  -->
<!DOCTYPE svg PUBLIC "-//W3C//DTD SVG 1.1//EN" "http://www.w3.org/Graphics/SVG/1.1/DTD/svg11.dtd">
<svg version="1.1" xmlns="http://www.w3.org/2000/svg" xmlns:xlink="http://www.w3.org/1999/xlink" x="0px" y="0px"
	 viewBox="0 0 150 150" style="enable-background:new 0 0 150 150;" xml:space="preserve">
<style type="text/css">
	.st0{display:none;}
	.st1{display:inline;fill:#666666;}
	.st2{fill:#666666;}
</style>
<g id="Layer_1" class="st0">
	<path class="st1" d="M68.7,98.7c13.4-3.1,21.2-5.8,15.1-17.2C65.5,46.9,79,28.4,98.3,28.4c19.7,0,32.9,19.2,14.5,53.1
		c-6.2,11.4,2,14.1,15.1,17.2c11.6,2.7,12.3,8.3,12.3,18.1v4.8H56.4C56.4,108.8,55.3,101.8,68.7,98.7z M9.7,121.6h36.4
		c-0.2-38.1,16-24.8,16-51.9c0-11.7-7.6-18.1-17.5-18.1c-14.5,0-24.6,13.9-10.9,39.8c4.5,8.5-4.8,10.6-14.8,12.9
		c-8.7,2-9.2,6.2-9.2,13.6C9.7,118,9.7,121.6,9.7,121.6z"/>
</g>
<g id="Layer_2" class="st0">
	<path class="st1" d="M75,26.9c29.4,0,53.4,19.2,53.4,42.8c0,26.3-27.5,42.5-52.9,42.5c-10.3,0-18.1-2.1-23.5-3.4
		c-5.3,3.3-8.5,5.5-22.8,9.7c2.9-7.3,3.9-14.7,3.2-22.8c-4.5-5.3-10.8-12.8-10.8-26C21.6,46.1,45.5,26.9,75,26.9z M75,16.3
		c-33.8,0-64.1,22.6-64.1,53.4c0,10.9,3.9,21.7,10.9,30c0.3,9.8-5.5,23.8-10.6,34c13.9-2.5,33.7-8.1,42.6-13.5
		c7.6,1.8,14.8,2.7,21.7,2.7c37.8,0,63.6-25.8,63.6-53.2C139.1,38.7,108.6,16.3,75,16.3z"/>
</g>
<g id="Layer_3" class="st0">
	<path class="st1" d="M43.6,52.6C56,52.6,66,62.6,66,75S56,97.4,43.6,97.4S21.2,87.4,21.2,75S31.2,52.6,43.6,52.6z M93.5,106.7
		c-0.3,1.4-0.5,2.7-0.5,4.2c0,9.9,8,17.9,17.9,17.9s17.9-8,17.9-17.9s-8-17.9-17.9-17.9c-5.2,0-9.9,2.3-13.2,5.8L73.1,85.6
		c-1,2.9-2.5,5.5-4.2,7.9C68.9,93.6,93.5,106.7,93.5,106.7z M128.8,39.1c0-9.9-8-17.9-17.9-17.9s-17.9,8-17.9,17.9
		c0,1.5,0.2,2.8,0.5,4.2L68.9,56.4c1.8,2.4,3.2,5.1,4.2,7.9l24.6-13.1c3.3,3.6,7.9,5.8,13.2,5.8C120.8,57.1,128.8,49,128.8,39.1z"/>
</g>
<g id="Layer_4" class="st0">
	<path class="st1" d="M12.3,48.9v78.3h125.3V48.9H12.3z M127.2,116.8H22.8V85.4h31.3V75H22.8V59.3h104.4V75H95.9v10.4h31.3V116.8z
		 M59.3,35.8c0-1.4,1.2-2.6,2.6-2.6h26.1c1.4,0,2.6,1.2,2.6,2.6v7.8h10.4V33.2c0-5.8-4.7-10.4-10.4-10.4H59.3
		c-5.8,0-10.4,4.7-10.4,10.4v10.4h10.4V35.8z M85.4,69.8H64.6v20.9h20.9V69.8z"/>
</g>
<g id="Layer_5">
	<path class="st2" d="M106.8,59.1H43.2v5.3h63.6V59.1z M59.1,69.7H43.2V75h15.9V69.7z M59.1,80.3H43.2v5.3h15.9V80.3z M106.8,69.7
		H90.9V75h15.9V69.7z M106.8,80.3H90.9v5.3h15.9V80.3z M85.6,69.7H64.4v15.9h21.2V69.7z M128.3,94.3c0.3,1.4-1.5,2.2-2.1,0.8
		c-0.7-1.8-1.9-9.2-2.9-16.7c-0.5-4-5.9-3.5-5.9,0.6c0,6.4,0,11.8,0,21.4c0,8.1,3.7,8.3,6.4,17.4c0.5,1.6,0.9,3.3,1.2,4.9l13.6-4.7
		c-4.7-9.3-2.5-16.6-2-22.6c0.6-8.2-1.5-9-11.6-18.8C125.6,80.9,126.9,88.6,128.3,94.3z M25,76.6c-10.1,9.8-12.3,10.6-11.6,18.8
		c0.5,6,2.8,13.3-2,22.6l13.6,4.7c0.3-1.7,0.7-3.4,1.2-4.9c2.7-9.1,6.4-9.3,6.4-17.4c0-9.5,0-14.9,0-21.4c0-4.1-5.3-4.6-5.9-0.6
		c-1,7.5-2.2,14.9-2.9,16.7c-0.6,1.4-2.4,0.6-2.1-0.8C23.1,88.6,24.4,80.9,25,76.6z M37.9,101.5l0-10.6h74.2l0,10.6
		C112.1,101.5,37.9,101.5,37.9,101.5z M27.3,70.7V35.2c0-4.4,3.6-8,8-8h79.6c4.4,0,8,3.6,8,8v35.4c-0.7-0.2-1.5-0.3-2.3-0.3
		c-2.2,0-4.3,0.9-5.8,2.4c-1.5,1.5-2.4,3.6-2.5,5.9V37.9H37.9v40.8c-0.1-2.3-0.9-4.4-2.5-5.9c-1.5-1.5-3.7-2.4-5.8-2.4
		C28.8,70.3,28,70.4,27.3,70.7z"/>
	<g id="XMLID_27_">
		<path id="XMLID_28_" class="st2" d="M49.4,44.2l1.4,5.3h0v-5.3H53v8.6h-2.4l-1.5-5.3h0v5.3h-2.1v-8.6H49.4z"/>
		<path id="XMLID_30_" class="st2" d="M54,46.5c0.1-0.6,0.3-1,0.5-1.4c0.2-0.4,0.6-0.6,0.9-0.8c0.4-0.2,0.9-0.2,1.4-0.2
			s1,0.1,1.4,0.2c0.4,0.2,0.7,0.4,0.9,0.8c0.2,0.4,0.4,0.8,0.5,1.4c0.1,0.6,0.2,1.2,0.2,2c0,0.8-0.1,1.5-0.2,2
			c-0.1,0.6-0.3,1-0.5,1.4c-0.2,0.4-0.6,0.6-0.9,0.8s-0.9,0.2-1.4,0.2s-1-0.1-1.4-0.2s-0.7-0.4-0.9-0.8c-0.2-0.4-0.4-0.8-0.5-1.4
			c-0.1-0.6-0.2-1.2-0.2-2C53.8,47.7,53.8,47,54,46.5z M56.1,49.9c0,0.4,0,0.7,0.1,0.9c0.1,0.2,0.1,0.4,0.2,0.5
			c0.1,0.1,0.2,0.1,0.4,0.1s0.3,0,0.4-0.1c0.1-0.1,0.2-0.2,0.2-0.5c0.1-0.2,0.1-0.5,0.1-0.9c0-0.4,0-0.9,0-1.4c0-0.6,0-1.1,0-1.4
			s0-0.7-0.1-0.9c-0.1-0.2-0.1-0.4-0.2-0.5c-0.1-0.1-0.2-0.1-0.4-0.1s-0.3,0-0.4,0.1c-0.1,0.1-0.2,0.2-0.2,0.5
			c-0.1,0.2-0.1,0.5-0.1,0.9s0,0.9,0,1.4C56.1,49.1,56.1,49.6,56.1,49.9z"/>
		<path id="XMLID_33_" class="st2" d="M62.9,50.4c0,0.4,0.1,0.7,0.2,0.8c0.1,0.1,0.3,0.2,0.5,0.2c0.2,0,0.4-0.1,0.5-0.2
			c0.1-0.1,0.2-0.4,0.2-0.8v-6.2h2.2v5.6c0,0.6-0.1,1.1-0.2,1.5c-0.1,0.4-0.3,0.7-0.6,1c-0.2,0.2-0.5,0.4-0.9,0.5
			c-0.4,0.1-0.8,0.1-1.2,0.1c-0.5,0-0.9,0-1.2-0.1c-0.4-0.1-0.7-0.3-0.9-0.5c-0.2-0.2-0.4-0.6-0.6-1c-0.1-0.4-0.2-0.9-0.2-1.5v-5.6
			h2.2V50.4z"/>
		<path id="XMLID_35_" class="st2" d="M69.1,44.2l0.9,6.5h0l0.9-6.5h2.4l-1.8,8.6h-2.9l-1.8-8.6H69.1z"/>
		<path id="XMLID_37_" class="st2" d="M78.7,44.2V46h-2.8v1.5h2.7v1.8h-2.7V51h3v1.8h-5.2v-8.6H78.7z"/>
		<path id="XMLID_39_" class="st2" d="M81.9,44.2V51h2.7v1.8h-5v-8.6H81.9z"/>
		<path id="XMLID_41_" class="st2" d="M87.4,44.2V51h2.7v1.8h-5v-8.6H87.4z"/>
		<path id="XMLID_43_" class="st2" d="M95.8,44.2V46H93v1.5h2.7v1.8H93V51h3v1.8h-5.2v-8.6H95.8z"/>
		<path id="XMLID_45_" class="st2" d="M100.1,46.5c0-0.3-0.1-0.5-0.2-0.7c-0.1-0.2-0.3-0.3-0.5-0.3c-0.2,0-0.4,0.1-0.5,0.2
			c-0.1,0.2-0.2,0.3-0.2,0.5c0,0.3,0.1,0.5,0.3,0.7c0.2,0.2,0.4,0.3,0.7,0.4c0.3,0.1,0.6,0.2,0.9,0.4c0.3,0.1,0.6,0.3,0.9,0.5
			c0.3,0.2,0.5,0.5,0.7,0.8c0.2,0.3,0.3,0.7,0.3,1.3c0,0.9-0.3,1.6-0.8,2c-0.5,0.4-1.3,0.6-2.3,0.6c-0.5,0-0.9,0-1.2-0.1
			c-0.4-0.1-0.7-0.2-0.9-0.4s-0.4-0.4-0.6-0.7c-0.1-0.3-0.2-0.7-0.2-1.1v-0.3h2.2v0.2c0,0.4,0.1,0.6,0.2,0.8s0.3,0.2,0.5,0.2
			c0.2,0,0.4-0.1,0.5-0.2c0.1-0.2,0.2-0.4,0.2-0.6c0-0.3-0.1-0.5-0.3-0.7s-0.4-0.3-0.6-0.4c-0.3-0.1-0.5-0.2-0.8-0.4
			c-0.3-0.1-0.6-0.3-0.8-0.5c-0.3-0.2-0.5-0.4-0.6-0.8s-0.3-0.7-0.3-1.2c0-0.9,0.2-1.5,0.7-2c0.5-0.5,1.2-0.7,2.1-0.7
			c1,0,1.7,0.2,2.1,0.6c0.4,0.4,0.7,1.1,0.7,2h-2.1V46.5z"/>
	</g>
</g>
</svg>
