<?xml version="1.0" encoding="utf-8"?>
<!-- Generator: Adobe Illustrator 19.0.0, SVG Export Plug-In . SVG Version: 6.00 Build 0)  -->
<!DOCTYPE svg PUBLIC "-//W3C//DTD SVG 1.1//EN" "http://www.w3.org/Graphics/SVG/1.1/DTD/svg11.dtd">
<svg version="1.1" id="Layer_1" xmlns="http://www.w3.org/2000/svg" xmlns:xlink="http://www.w3.org/1999/xlink" x="0px" y="0px"
	 viewBox="0 0 150 150" style="enable-background:new 0 0 150 150;" xml:space="preserve">
<style type="text/css">
	.st0{fill:#666666;}
</style>
<path class="st0" d="M68.7,98.7c13.4-3.1,21.2-5.8,15.1-17.2C65.5,46.9,79,28.4,98.3,28.4c19.7,0,32.9,19.2,14.5,53.1
	c-6.2,11.4,2,14.1,15.1,17.2c11.6,2.7,12.3,8.3,12.3,18.1v4.8H56.4C56.4,108.8,55.3,101.8,68.7,98.7z M9.7,121.6h36.4
	c-0.2-38.1,16-24.8,16-51.9c0-11.7-7.6-18.1-17.5-18.1c-14.5,0-24.6,13.9-10.9,39.8c4.5,8.5-4.8,10.6-14.8,12.9
	c-8.7,2-9.2,6.2-9.2,13.6C9.7,118,9.7,121.6,9.7,121.6z"/>
</svg>
