<?xml version="1.0" encoding="utf-8"?>
<!-- Generator: Adobe Illustrator 19.0.0, SVG Export Plug-In . SVG Version: 6.00 Build 0)  -->
<!DOCTYPE svg PUBLIC "-//W3C//DTD SVG 1.1//EN" "http://www.w3.org/Graphics/SVG/1.1/DTD/svg11.dtd">
<svg version="1.1" xmlns="http://www.w3.org/2000/svg" xmlns:xlink="http://www.w3.org/1999/xlink" x="0px" y="0px"
	 viewBox="0 0 150 150" style="enable-background:new 0 0 150 150;" xml:space="preserve">
<style type="text/css">
	.st0{display:none;}
	.st1{display:inline;fill:#666666;}
	.st2{display:inline;}
	.st3{fill:#666666;}
</style>
<g id="Layer_1" class="st0">
	<path class="st1" d="M68.7,98.7c13.4-3.1,21.2-5.8,15.1-17.2C65.5,46.9,79,28.4,98.3,28.4c19.7,0,32.9,19.2,14.5,53.1
		c-6.2,11.4,2,14.1,15.1,17.2c11.6,2.7,12.3,8.3,12.3,18.1v4.8H56.4C56.4,108.8,55.3,101.8,68.7,98.7z M9.7,121.6h36.4
		c-0.2-38.1,16-24.8,16-51.9c0-11.7-7.6-18.1-17.5-18.1c-14.5,0-24.6,13.9-10.9,39.8c4.5,8.5-4.8,10.6-14.8,12.9
		c-8.7,2-9.2,6.2-9.2,13.6C9.7,118,9.7,121.6,9.7,121.6z"/>
</g>
<g id="Layer_2" class="st0">
	<path class="st1" d="M75,26.9c29.4,0,53.4,19.2,53.4,42.8c0,26.3-27.5,42.5-52.9,42.5c-10.3,0-18.1-2.1-23.5-3.4
		c-5.3,3.3-8.5,5.5-22.8,9.7c2.9-7.3,3.9-14.7,3.2-22.8c-4.5-5.3-10.8-12.8-10.8-26C21.6,46.1,45.5,26.9,75,26.9z M75,16.3
		c-33.8,0-64.1,22.6-64.1,53.4c0,10.9,3.9,21.7,10.9,30c0.3,9.8-5.5,23.8-10.6,34c13.9-2.5,33.7-8.1,42.6-13.5
		c7.6,1.8,14.8,2.7,21.7,2.7c37.8,0,63.6-25.8,63.6-53.2C139.1,38.7,108.6,16.3,75,16.3z"/>
</g>
<g id="Layer_3" class="st0">
	<path class="st1" d="M43.6,52.6C56,52.6,66,62.6,66,75S56,97.4,43.6,97.4S21.2,87.4,21.2,75S31.2,52.6,43.6,52.6z M93.5,106.7
		c-0.3,1.4-0.5,2.7-0.5,4.2c0,9.9,8,17.9,17.9,17.9s17.9-8,17.9-17.9s-8-17.9-17.9-17.9c-5.2,0-9.9,2.3-13.2,5.8L73.1,85.6
		c-1,2.9-2.5,5.5-4.2,7.9C68.9,93.6,93.5,106.7,93.5,106.7z M128.8,39.1c0-9.9-8-17.9-17.9-17.9s-17.9,8-17.9,17.9
		c0,1.5,0.2,2.8,0.5,4.2L68.9,56.4c1.8,2.4,3.2,5.1,4.2,7.9l24.6-13.1c3.3,3.6,7.9,5.8,13.2,5.8C120.8,57.1,128.8,49,128.8,39.1z"/>
</g>
<g id="Layer_4" class="st0">
	<path class="st1" d="M12.3,48.9v78.3h125.3V48.9H12.3z M127.2,116.8H22.8V85.4h31.3V75H22.8V59.3h104.4V75H95.9v10.4h31.3V116.8z
		 M59.3,35.8c0-1.4,1.2-2.6,2.6-2.6h26.1c1.4,0,2.6,1.2,2.6,2.6v7.8h10.4V33.2c0-5.8-4.7-10.4-10.4-10.4H59.3
		c-5.8,0-10.4,4.7-10.4,10.4v10.4h10.4V35.8z M85.4,69.8H64.6v20.9h20.9V69.8z"/>
</g>
<g id="Layer_5" class="st0">
	<path class="st1" d="M106.8,59.1H43.2v5.3h63.6V59.1z M59.1,69.7H43.2V75h15.9V69.7z M59.1,80.3H43.2v5.3h15.9V80.3z M106.8,69.7
		H90.9V75h15.9V69.7z M106.8,80.3H90.9v5.3h15.9V80.3z M85.6,69.7H64.4v15.9h21.2V69.7z M128.3,94.3c0.3,1.4-1.5,2.2-2.1,0.8
		c-0.7-1.8-1.9-9.2-2.9-16.7c-0.5-4-5.9-3.5-5.9,0.6c0,6.4,0,11.8,0,21.4c0,8.1,3.7,8.3,6.4,17.4c0.5,1.6,0.9,3.3,1.2,4.9l13.6-4.7
		c-4.7-9.3-2.5-16.6-2-22.6c0.6-8.2-1.5-9-11.6-18.8C125.6,80.9,126.9,88.6,128.3,94.3z M25,76.6c-10.1,9.8-12.3,10.6-11.6,18.8
		c0.5,6,2.8,13.3-2,22.6l13.6,4.7c0.3-1.7,0.7-3.4,1.2-4.9c2.7-9.1,6.4-9.3,6.4-17.4c0-9.5,0-14.9,0-21.4c0-4.1-5.3-4.6-5.9-0.6
		c-1,7.5-2.2,14.9-2.9,16.7c-0.6,1.4-2.4,0.6-2.1-0.8C23.1,88.6,24.4,80.9,25,76.6z M37.9,101.5l0-10.6h74.2l0,10.6
		C112.1,101.5,37.9,101.5,37.9,101.5z M27.3,70.7V35.2c0-4.4,3.6-8,8-8h79.6c4.4,0,8,3.6,8,8v35.4c-0.7-0.2-1.5-0.3-2.3-0.3
		c-2.2,0-4.3,0.9-5.8,2.4c-1.5,1.5-2.4,3.6-2.5,5.9V37.9H37.9v40.8c-0.1-2.3-0.9-4.4-2.5-5.9c-1.5-1.5-3.7-2.4-5.8-2.4
		C28.8,70.3,28,70.4,27.3,70.7z"/>
	<g id="XMLID_27_" class="st2">
		<path id="XMLID_28_" class="st3" d="M49.4,44.2l1.4,5.3h0v-5.3H53v8.6h-2.4l-1.5-5.3h0v5.3h-2.1v-8.6H49.4z"/>
		<path id="XMLID_30_" class="st3" d="M54,46.5c0.1-0.6,0.3-1,0.5-1.4c0.2-0.4,0.6-0.6,0.9-0.8c0.4-0.2,0.9-0.2,1.4-0.2
			s1,0.1,1.4,0.2c0.4,0.2,0.7,0.4,0.9,0.8c0.2,0.4,0.4,0.8,0.5,1.4c0.1,0.6,0.2,1.2,0.2,2c0,0.8-0.1,1.5-0.2,2
			c-0.1,0.6-0.3,1-0.5,1.4c-0.2,0.4-0.6,0.6-0.9,0.8s-0.9,0.2-1.4,0.2s-1-0.1-1.4-0.2s-0.7-0.4-0.9-0.8c-0.2-0.4-0.4-0.8-0.5-1.4
			c-0.1-0.6-0.2-1.2-0.2-2C53.8,47.7,53.8,47,54,46.5z M56.1,49.9c0,0.4,0,0.7,0.1,0.9c0.1,0.2,0.1,0.4,0.2,0.5
			c0.1,0.1,0.2,0.1,0.4,0.1s0.3,0,0.4-0.1c0.1-0.1,0.2-0.2,0.2-0.5c0.1-0.2,0.1-0.5,0.1-0.9c0-0.4,0-0.9,0-1.4c0-0.6,0-1.1,0-1.4
			s0-0.7-0.1-0.9c-0.1-0.2-0.1-0.4-0.2-0.5c-0.1-0.1-0.2-0.1-0.4-0.1s-0.3,0-0.4,0.1c-0.1,0.1-0.2,0.2-0.2,0.5
			c-0.1,0.2-0.1,0.5-0.1,0.9s0,0.9,0,1.4C56.1,49.1,56.1,49.6,56.1,49.9z"/>
		<path id="XMLID_33_" class="st3" d="M62.9,50.4c0,0.4,0.1,0.7,0.2,0.8c0.1,0.1,0.3,0.2,0.5,0.2c0.2,0,0.4-0.1,0.5-0.2
			c0.1-0.1,0.2-0.4,0.2-0.8v-6.2h2.2v5.6c0,0.6-0.1,1.1-0.2,1.5c-0.1,0.4-0.3,0.7-0.6,1c-0.2,0.2-0.5,0.4-0.9,0.5
			c-0.4,0.1-0.8,0.1-1.2,0.1c-0.5,0-0.9,0-1.2-0.1c-0.4-0.1-0.7-0.3-0.9-0.5c-0.2-0.2-0.4-0.6-0.6-1c-0.1-0.4-0.2-0.9-0.2-1.5v-5.6
			h2.2V50.4z"/>
		<path id="XMLID_35_" class="st3" d="M69.1,44.2l0.9,6.5h0l0.9-6.5h2.4l-1.8,8.6h-2.9l-1.8-8.6H69.1z"/>
		<path id="XMLID_37_" class="st3" d="M78.7,44.2V46h-2.8v1.5h2.7v1.8h-2.7V51h3v1.8h-5.2v-8.6H78.7z"/>
		<path id="XMLID_39_" class="st3" d="M81.9,44.2V51h2.7v1.8h-5v-8.6H81.9z"/>
		<path id="XMLID_41_" class="st3" d="M87.4,44.2V51h2.7v1.8h-5v-8.6H87.4z"/>
		<path id="XMLID_43_" class="st3" d="M95.8,44.2V46H93v1.5h2.7v1.8H93V51h3v1.8h-5.2v-8.6H95.8z"/>
		<path id="XMLID_45_" class="st3" d="M100.1,46.5c0-0.3-0.1-0.5-0.2-0.7c-0.1-0.2-0.3-0.3-0.5-0.3c-0.2,0-0.4,0.1-0.5,0.2
			c-0.1,0.2-0.2,0.3-0.2,0.5c0,0.3,0.1,0.5,0.3,0.7c0.2,0.2,0.4,0.3,0.7,0.4c0.3,0.1,0.6,0.2,0.9,0.4c0.3,0.1,0.6,0.3,0.9,0.5
			c0.3,0.2,0.5,0.5,0.7,0.8c0.2,0.3,0.3,0.7,0.3,1.3c0,0.9-0.3,1.6-0.8,2c-0.5,0.4-1.3,0.6-2.3,0.6c-0.5,0-0.9,0-1.2-0.1
			c-0.4-0.1-0.7-0.2-0.9-0.4s-0.4-0.4-0.6-0.7c-0.1-0.3-0.2-0.7-0.2-1.1v-0.3h2.2v0.2c0,0.4,0.1,0.6,0.2,0.8s0.3,0.2,0.5,0.2
			c0.2,0,0.4-0.1,0.5-0.2c0.1-0.2,0.2-0.4,0.2-0.6c0-0.3-0.1-0.5-0.3-0.7s-0.4-0.3-0.6-0.4c-0.3-0.1-0.5-0.2-0.8-0.4
			c-0.3-0.1-0.6-0.3-0.8-0.5c-0.3-0.2-0.5-0.4-0.6-0.8s-0.3-0.7-0.3-1.2c0-0.9,0.2-1.5,0.7-2c0.5-0.5,1.2-0.7,2.1-0.7
			c1,0,1.7,0.2,2.1,0.6c0.4,0.4,0.7,1.1,0.7,2h-2.1V46.5z"/>
	</g>
</g>
<g id="Layer_6" class="st0">
	<path class="st1" d="M71.6,51.9l58.9-12.1l0-0.2l-4.7-20L27.9,38.9c-4.9,1-8.4,5.2-8.4,10.2v67.5c0,7.7,6.2,13.9,13.9,13.9h83.3
		c7.7,0,13.9-6.2,13.9-13.9V51.9H71.6z M112.5,27.6l11.1,7.4l-13.8,2.8l-11.1-7.4C98.7,30.4,112.5,27.6,112.5,27.6z M85.2,33
		l11.1,7.4l-13.8,2.8l-11.1-7.4C71.4,35.8,85.2,33,85.2,33z M57.9,38.4L69,45.9l-13.8,2.8l-11.1-7.4L57.9,38.4z M46.1,65.7l9.4-9.3
		h14.1l-9.4,9.3C60.2,65.7,46.1,65.7,46.1,65.7z M65.7,112V79.6l27.8,15.8L65.7,112z M88.1,65.7H74l9.4-9.3h14.1
		C97.5,56.5,88.1,65.7,88.1,65.7z M115.9,65.7h-14.1l9.4-9.3h14.1C125.3,56.5,115.9,65.7,115.9,65.7z"/>
</g>
<g id="Layer_7" class="st0">
	<path class="st1" d="M102.8,30.5c-9.5,0-12.7,6.8-27.8,6.8c-14.9,0-18.5-6.8-27.8-6.8c-25.8,0-31.5,51.3-31.5,71
		c0,10.6,4,18.1,12.2,18.1c17.1,0,14.5-24.7,34.2-24.7h25.9c19.7,0,17.1,24.7,34.2,24.7c8.2,0,12.2-7.4,12.2-18.1
		C134.4,81.8,128.6,30.5,102.8,30.5z M50.3,79.9c-8.2,0-14.8-6.6-14.8-14.8s6.6-14.8,14.8-14.8s14.8,6.6,14.8,14.8
		S58.5,79.9,50.3,79.9z M99.7,50.3c2.7,0,4.9,2.2,4.9,4.9s-2.2,4.9-4.9,4.9s-4.9-2.2-4.9-4.9C94.8,52.5,97,50.3,99.7,50.3z
		 M89.8,70.1c-2.7,0-4.9-2.2-4.9-4.9c0-2.7,2.2-4.9,4.9-4.9s4.9,2.2,4.9,4.9C94.8,67.8,92.6,70.1,89.8,70.1z M99.7,79.9
		c-2.7,0-4.9-2.2-4.9-4.9c0-2.7,2.2-4.9,4.9-4.9s4.9,2.2,4.9,4.9C104.7,77.7,102.5,79.9,99.7,79.9z M109.6,70.1
		c-2.7,0-4.9-2.2-4.9-4.9c0-2.7,2.2-4.9,4.9-4.9c2.7,0,4.9,2.2,4.9,4.9C114.6,67.8,112.4,70.1,109.6,70.1z M58.9,65.1
		c0,4.8-3.9,8.7-8.7,8.7s-8.7-3.9-8.7-8.7s3.9-8.7,8.7-8.7S58.9,60.3,58.9,65.1z"/>
</g>
<g id="Layer_8" class="st0">
	<path class="st1" d="M35,24.2L48.5,18l19.2,37.5l-13,6.4c-2.6,6,10.3,29.9,15.7,30.3c0.4-0.3,12.7-6.3,12.7-6.3l19.5,37.7
		c0,0-13.1,6.4-13.6,6.6C51.8,147.2-1.7,43.4,35,24.2z M44.2,30.3l-4.9,2.4c-25.2,13.1,19.9,100.7,45.9,88.8l4.6-2.3L79,98.4
		l-4.9,2.4c-15,7.4-39.3-39.1-24-47.2l4.8-2.4C54.9,51.2,44.2,30.3,44.2,30.3z M81.4,66.7l13.9,4.1c1.1-3.6,0.8-7.5-1.1-11
		c-1.9-3.5-5-5.9-8.6-7L81.4,66.7z M90,37.9c7.4,2.2,13.9,7.2,17.9,14.5c4,7.3,4.6,15.5,2.4,22.9l-8.5-2.5c1.5-5.2,1.1-11-1.7-16.1
		c-2.8-5.1-7.4-8.7-12.6-10.2C87.5,46.4,90,37.9,90,37.9z M94.5,22.7c11.2,3.4,21.2,11,27.2,22.1c6,11.1,7,23.7,3.6,34.9l-8.7-2.6
		c2.7-9,1.9-19-2.9-28c-4.8-8.9-12.8-15-21.8-17.7C91.9,31.5,94.5,22.7,94.5,22.7z"/>
</g>
<g id="Layer_9" class="st0">
	<path class="st1" d="M66.8,38.1c-2.7-1.3-5.1-2.4-7.4-3.4C63,24.9,68.2,18.5,75,18.5c6.6,0,11.7,6.1,15.4,15.5
		c-2.3,1-4.7,2.1-7.4,3.5c-2.8-7.4-5.9-10.7-8-10.7C72.9,26.7,69.6,30.3,66.8,38.1z M75,123.3c-2,0-5.2-3.3-8-10.7
		c-2.7,1.4-5.1,2.5-7.4,3.5c3.6,9.4,8.8,15.5,15.4,15.5c6.8,0,12-6.5,15.6-16.3c-2.3-0.9-4.7-2-7.4-3.4
		C80.4,119.7,77.1,123.3,75,123.3z M52.8,112.8c-9,3.3-22.5,6.6-27.9-1.5c-2.6-4-3.6-11.6,6.7-25.5c2.7-3.7,5.9-7.3,9.1-10.6
		c7.2-7.3,15.3-14.4,25.9-21.7c-5.1-2.8-10.7-5.5-16.1-7.5c-5.6-2-10.5-3.2-14.2-3.2c-2.4,0-4.2,0.5-4.8,1.4C31,45.2,31,48,33.7,53
		l1-0.1c4.9,0,8.9,4.1,8.9,9.1s-4,9.1-8.9,9.1S25.8,67,25.8,62c0-1.6,0.4-3.2,1.2-4.5c-5.2-9.2-4.2-14.8-2-18
		c1.5-2.2,4.8-4.9,11.4-4.9c11.8,0,27.8,7.8,38.1,13.9c10.4-6.4,26.9-14.9,39.1-14.9c6.7,0,9.9,2.7,11.5,5c2.6,4,3.6,11.6-6.7,25.5
		C103.8,83.6,74.9,104.7,52.8,112.8z M111.9,59.1c7.1-9.5,7.3-14.5,6.4-15.8c-0.6-0.9-2.3-1.4-4.7-1.4c-9.2,0-23.2,6.9-31.3,11.5
		c6,3.9,11.5,8.1,16.6,12.3c-1.9,1.9-3.9,3.9-6,5.7c-5.6-4.6-11.9-9.2-18.4-13.2C67.1,63.1,59.6,68.8,52.9,75
		c5.1,4.5,11.1,9.2,17.5,13.5c-2.5,1.6-4.9,3.1-7.8,4.6l-0.1,0c-5.4-3.8-10.7-8-15.6-12.4c-13.3,13.6-17,23.4-15.3,26
		c0.6,0.9,2.3,1.4,4.7,1.4c11.1,0,28.6-9.5,39-16.3C88.2,83.4,102.8,71.4,111.9,59.1z M123.1,92.5c0.7-1.3,1-2.7,1-4.3
		c0-5-4-9.1-8.9-9.1s-8.9,4.1-8.9,9.1s4,9.1,8.9,9.1l1.2-0.1c2.6,4.8,2.6,7.5,2,8.4c-0.6,0.9-2.4,1.4-4.8,1.4
		c-7.5,0-18.1-4.5-24.8-7.8c-2.3,1.6-5.1,3.5-7.8,5.3c9.1,4.9,22.4,10.8,32.6,10.8c6.7,0,9.9-2.7,11.4-4.9
		C127.2,107.3,128.3,101.7,123.1,92.5z"/>
</g>
<g id="Layer_10">
	<path class="st3" d="M93,97.9c-3.7,3.6-3.6,9.6,0.2,12.9c-4.5,8.9-10.7,16.8-18,23.5c-28.7,0.2-53.3-20.4-58.5-48.4
		c5.2-8.8,12-16.5,20.1-22.8c3.6,2.4,8.5,1.7,11.5-1.6C67.3,67.8,83.1,80.9,93,97.9z M18.5,57.3c-2,6.2-2.9,12.8-2.7,19.5
		c4.9-6.9,10.8-13.1,17.6-18.4l-0.1-0.4C28.2,57.2,23.4,57,18.5,57.3z M132.1,59.1c-7.3-4.8-15.3-8.4-23.9-10.7
		c-0.7,1.3-1.7,2.3-3.1,3c3.9,14.9,3.8,30.8-0.4,45.6c4.2,3.3,4.4,9.6,0.4,13.3c1.5,4.3,2.7,8.8,3.5,13.4
		C129.9,109,138.7,82.9,132.1,59.1z M90.9,45.8c-14.1-0.6-27.9,2.3-40.4,8.6c0.1,0.7,0.1,1.2,0.1,1.7c20.8,7.1,37.5,21.6,47.7,39.3
		l1-0.1c3.8-14,3.9-28.9,0.1-42.9C95.4,51.8,92.1,49.1,90.9,45.8z M99.2,35.3c4.5,0.2,8.4,3.4,9.6,7.3c7,1.8,13.8,4.4,20.2,7.8
		c-7.7-16.8-23-29.4-41.6-33.4C92,22.7,96,28.8,99.2,35.3z M20.6,51.4c4.4-0.1,8.8,0.2,13.4,0.8c2.6-5.3,9.5-6.8,13.8-3
		C61.4,42.4,76.3,39.4,91,40c0.5-1.3,1.4-2.3,2.5-3.1c-3.9-7.8-9-14.9-15.1-21C52.7,14.4,30.2,29.4,20.6,51.4z M98.7,112.8
		c-3.8,7.5-8.6,14.4-14.5,20.7c6.8-1.1,13.2-3.3,19.1-6.5c-0.7-4.9-1.9-9.7-3.5-14.3L98.7,112.8z"/>
</g>
</svg>
