<?xml version="1.0" encoding="utf-8"?>
<!-- Generator: Adobe Illustrator 19.0.0, SVG Export Plug-In . SVG Version: 6.00 Build 0)  -->
<!DOCTYPE svg PUBLIC "-//W3C//DTD SVG 1.1//EN" "http://www.w3.org/Graphics/SVG/1.1/DTD/svg11.dtd">
<svg version="1.1" id="Layer_1" xmlns="http://www.w3.org/2000/svg" xmlns:xlink="http://www.w3.org/1999/xlink" x="0px" y="0px"
	 viewBox="0 0 50 50" style="enable-background:new 0 0 50 50;" xml:space="preserve">
<style type="text/css">
	.st0{fill:#FFFFFF;}
</style>
<path id="XMLID_2_" class="st0" d="M49.9,25L25,49.9L0.1,25L25,0.1L49.9,25z M25,5.5L5.5,25L25,44.5L44.5,25L25,5.5z"/>
<g id="XMLID_38_">
	<path id="XMLID_39_" class="st0" d="M16.5,33V17h3.3c0.7,0,1.4,0.1,1.9,0.3c0.5,0.2,0.9,0.5,1.3,0.9c0.3,0.4,0.6,0.8,0.7,1.3
		c0.1,0.5,0.2,1,0.2,1.5v0.6c0,0.4,0,0.8-0.1,1.1c-0.1,0.3-0.2,0.6-0.3,0.8c-0.3,0.4-0.6,0.8-1.2,1.1c0.5,0.3,0.9,0.6,1.2,1.1
		c0.3,0.5,0.4,1.2,0.4,2v0.9c0,1.4-0.3,2.5-1,3.2c-0.7,0.7-1.8,1.1-3.3,1.1H16.5z M18.8,19.2v4.4h1c0.8,0,1.3-0.2,1.5-0.6
		c0.3-0.4,0.4-0.9,0.4-1.7c0-0.7-0.1-1.3-0.4-1.6c-0.3-0.4-0.8-0.5-1.6-0.5H18.8z M18.8,25.6v5.1h1c0.5,0,0.8-0.1,1.1-0.2
		c0.3-0.1,0.5-0.3,0.6-0.6c0.1-0.2,0.2-0.5,0.2-0.8c0-0.3,0-0.7,0-1.1c0-0.4,0-0.8-0.1-1.1c0-0.3-0.1-0.6-0.3-0.8
		c-0.1-0.2-0.4-0.4-0.6-0.5c-0.3-0.1-0.6-0.1-1-0.1H18.8z"/>
	<path id="XMLID_43_" class="st0" d="M25.9,20.8c0-0.6,0.1-1.2,0.3-1.7c0.2-0.5,0.5-0.9,0.9-1.2c0.4-0.3,0.8-0.6,1.2-0.7
		c0.5-0.2,0.9-0.2,1.4-0.2c0.5,0,0.9,0.1,1.4,0.2c0.5,0.2,0.9,0.4,1.2,0.7c0.4,0.3,0.6,0.7,0.9,1.2c0.2,0.5,0.3,1.1,0.3,1.7v0.8
		h-2.3v-0.8c0-0.6-0.2-1-0.5-1.2c-0.3-0.3-0.7-0.4-1.1-0.4c-0.4,0-0.8,0.1-1.1,0.4c-0.3,0.3-0.5,0.7-0.5,1.2v8.4
		c0,0.6,0.2,1,0.5,1.2c0.3,0.3,0.7,0.4,1.1,0.4c0.4,0,0.8-0.1,1.1-0.4c0.3-0.3,0.5-0.7,0.5-1.2v-3h-1.8v-2h4.1v5
		c0,0.7-0.1,1.2-0.3,1.7c-0.2,0.5-0.5,0.9-0.9,1.2c-0.4,0.3-0.8,0.6-1.2,0.7c-0.5,0.2-0.9,0.2-1.4,0.2c-0.5,0-0.9-0.1-1.4-0.2
		c-0.5-0.2-0.9-0.4-1.2-0.7c-0.4-0.3-0.7-0.7-0.9-1.2c-0.2-0.5-0.3-1.1-0.3-1.7V20.8z"/>
</g>
</svg>
