<?xml version="1.0" encoding="utf-8"?>
<!-- Generator: Adobe Illustrator 19.0.0, SVG Export Plug-In . SVG Version: 6.00 Build 0)  -->
<!DOCTYPE svg PUBLIC "-//W3C//DTD SVG 1.1//EN" "http://www.w3.org/Graphics/SVG/1.1/DTD/svg11.dtd">
<svg version="1.1" id="Layer_1" xmlns="http://www.w3.org/2000/svg" xmlns:xlink="http://www.w3.org/1999/xlink" x="0px" y="0px"
	 viewBox="0 0 250 200" style="enable-background:new 0 0 250 200;" xml:space="preserve">
<style type="text/css">
	.st0{fill:#2B3136;}
</style>
<g id="XMLID_4_">
	<path id="XMLID_2_" class="st0" d="M199.9,77.6l-72.5,72.5L54.8,77.6L127.4,5L199.9,77.6z M127.4,20.6l-57,57l57,57l57-57
		L127.4,20.6z"/>
	<g id="XMLID_38_">
		<path id="XMLID_39_" class="st0" d="M102.7,100.8V54.3h9.7c2.1,0,3.9,0.3,5.4,1c1.5,0.7,2.7,1.5,3.7,2.6c1,1.1,1.6,2.3,2.1,3.8
			c0.4,1.4,0.6,2.9,0.6,4.4v1.7c0,1.3-0.1,2.3-0.3,3.2c-0.2,0.9-0.5,1.6-0.9,2.3c-0.7,1.2-1.9,2.3-3.4,3.1c1.6,0.7,2.7,1.8,3.5,3.3
			c0.7,1.4,1.1,3.4,1.1,5.9v2.6c0,4.1-1,7.2-3,9.4c-2,2.2-5.1,3.3-9.5,3.3H102.7z M109.4,60.6v12.8h3c2.2,0,3.7-0.6,4.5-1.7
			c0.8-1.1,1.1-2.7,1.1-4.9c0-2.1-0.4-3.7-1.3-4.7c-0.8-1-2.4-1.6-4.6-1.6H109.4z M109.4,79.3v14.9h2.9c1.3,0,2.4-0.2,3.2-0.6
			c0.8-0.4,1.3-0.9,1.7-1.6c0.4-0.7,0.6-1.5,0.7-2.5c0.1-1,0.1-2,0.1-3.1c0-1.2-0.1-2.2-0.2-3.1c-0.1-0.9-0.4-1.6-0.8-2.2
			c-0.4-0.6-1-1.1-1.8-1.3c-0.7-0.3-1.7-0.4-2.9-0.4H109.4z"/>
		<path id="XMLID_43_" class="st0" d="M130.1,65.3c0-1.9,0.3-3.5,1-5c0.7-1.4,1.5-2.6,2.6-3.6c1-0.9,2.2-1.6,3.6-2.1
			c1.3-0.5,2.7-0.7,4-0.7c1.3,0,2.7,0.2,4,0.7c1.3,0.5,2.5,1.2,3.6,2.1c1,1,1.9,2.2,2.5,3.6c0.7,1.4,1,3.1,1,5v2.3h-6.7v-2.3
			c0-1.6-0.4-2.8-1.3-3.6c-0.9-0.8-1.9-1.1-3.2-1.1c-1.2,0-2.3,0.4-3.2,1.1c-0.9,0.8-1.3,1.9-1.3,3.6v24.5c0,1.6,0.4,2.8,1.3,3.6
			c0.9,0.8,1.9,1.1,3.2,1.1c1.2,0,2.3-0.4,3.2-1.1c0.9-0.8,1.3-1.9,1.3-3.6v-8.7h-5.3v-5.9h11.9v14.6c0,2-0.3,3.6-1,5
			c-0.7,1.4-1.5,2.5-2.5,3.5c-1.1,1-2.3,1.7-3.6,2.2c-1.3,0.5-2.7,0.7-4,0.7c-1.3,0-2.7-0.2-4-0.7c-1.3-0.5-2.5-1.2-3.6-2.2
			c-1.1-0.9-2-2.1-2.6-3.5c-0.7-1.4-1-3.1-1-5V65.3z"/>
	</g>
	<g id="XMLID_5_">
		<path id="XMLID_7_" class="st0" d="M7.5,194.8v-21.9h4.6c1,0,1.9,0.2,2.6,0.5c0.7,0.3,1.3,0.7,1.7,1.2c0.5,0.5,0.8,1.1,1,1.8
			c0.2,0.7,0.3,1.4,0.3,2.1v0.8c0,0.6,0,1.1-0.1,1.5c-0.1,0.4-0.2,0.8-0.4,1.1c-0.3,0.6-0.9,1.1-1.6,1.5c0.7,0.3,1.3,0.9,1.6,1.5
			c0.3,0.7,0.5,1.6,0.5,2.8v1.2c0,1.9-0.5,3.4-1.4,4.4c-0.9,1-2.4,1.5-4.5,1.5H7.5z M10.6,175.8v6H12c1,0,1.7-0.3,2.1-0.8
			c0.4-0.5,0.5-1.3,0.5-2.3c0-1-0.2-1.7-0.6-2.2s-1.1-0.7-2.2-0.7H10.6z M10.6,184.6v7H12c0.6,0,1.1-0.1,1.5-0.3
			c0.4-0.2,0.6-0.4,0.8-0.8c0.2-0.3,0.3-0.7,0.3-1.2c0-0.5,0.1-0.9,0.1-1.5c0-0.6,0-1-0.1-1.4c-0.1-0.4-0.2-0.8-0.4-1
			c-0.2-0.3-0.5-0.5-0.8-0.6c-0.3-0.1-0.8-0.2-1.4-0.2H10.6z"/>
		<path id="XMLID_11_" class="st0" d="M25,194.8l4.9-21.9h2.6l4.9,21.9h-3.1l-0.9-4.7H29l-0.9,4.7H25z M32.7,187.1l-1.5-7.9h-0.1
			l-1.5,7.9H32.7z"/>
		<path id="XMLID_14_" class="st0" d="M45.4,194.8v-18.9h-3.6v-3h10.4v3h-3.6v18.9H45.4z"/>
		<path id="XMLID_16_" class="st0" d="M61.8,194.8v-18.9h-3.6v-3h10.4v3h-3.6v18.9H61.8z"/>
		<path id="XMLID_18_" class="st0" d="M76.1,194.8v-21.9h3.1v18.8h6.2v3.1H76.1z"/>
		<path id="XMLID_20_" class="st0" d="M93.6,194.8v-21.9h9.3v3h-6.2v6.4h5.4v3h-5.4v6.4h6.2v3.1H93.6z"/>
		<path id="XMLID_22_" class="st0" d="M122.8,178c0-0.9,0.2-1.7,0.5-2.3c0.3-0.7,0.7-1.2,1.2-1.7c0.5-0.4,1.1-0.8,1.7-1
			c0.6-0.2,1.3-0.3,1.9-0.3c0.6,0,1.3,0.1,1.9,0.3c0.6,0.2,1.2,0.6,1.7,1c0.5,0.5,0.9,1,1.2,1.7c0.3,0.7,0.5,1.5,0.5,2.3v1.1h-3.1
			V178c0-0.8-0.2-1.3-0.6-1.7c-0.4-0.4-0.9-0.5-1.5-0.5c-0.6,0-1.1,0.2-1.5,0.5c-0.4,0.4-0.6,0.9-0.6,1.7v11.6
			c0,0.8,0.2,1.3,0.6,1.7c0.4,0.4,0.9,0.5,1.5,0.5c0.6,0,1.1-0.2,1.5-0.5c0.4-0.4,0.6-0.9,0.6-1.7v-4.1h-2.5v-2.8h5.6v6.9
			c0,0.9-0.2,1.7-0.5,2.4c-0.3,0.7-0.7,1.2-1.2,1.6c-0.5,0.5-1.1,0.8-1.7,1s-1.3,0.3-1.9,0.3c-0.6,0-1.3-0.1-1.9-0.3
			c-0.6-0.2-1.2-0.6-1.7-1c-0.5-0.4-0.9-1-1.2-1.6c-0.3-0.7-0.5-1.4-0.5-2.4V178z"/>
		<path id="XMLID_24_" class="st0" d="M140.8,194.8l4.9-21.9h2.6l4.9,21.9h-3.1l-0.9-4.7h-4.3l-0.9,4.7H140.8z M148.5,187.1
			l-1.5-7.9H147l-1.5,7.9H148.5z"/>
		<path id="XMLID_27_" class="st0" d="M160.9,194.8v-21.9h3.1v18.8h6.2v3.1H160.9z"/>
		<path id="XMLID_29_" class="st0" d="M178.4,194.8v-21.9h3.1v18.8h6.2v3.1H178.4z"/>
		<path id="XMLID_31_" class="st0" d="M195.9,194.8v-21.9h9.3v3h-6.2v6.4h5.4v3h-5.4v6.4h6.2v3.1H195.9z"/>
		<path id="XMLID_33_" class="st0" d="M213.5,194.8v-21.9h5c3.7,0,5.5,2.1,5.5,6.4c0,1.3-0.2,2.4-0.6,3.3c-0.4,0.9-1.1,1.6-2.1,2.2
			l3.4,10h-3.3l-2.9-9.3h-1.9v9.3H213.5z M216.6,175.8v6.8h1.8c0.6,0,1-0.1,1.3-0.2c0.3-0.2,0.6-0.4,0.8-0.7
			c0.2-0.3,0.3-0.6,0.3-1.1c0.1-0.4,0.1-0.9,0.1-1.5c0-0.6,0-1-0.1-1.5c-0.1-0.4-0.2-0.8-0.4-1.1c-0.4-0.6-1.1-0.9-2.2-0.9H216.6z"
			/>
		<path id="XMLID_36_" class="st0" d="M235.1,194.8v-9.3l-4.3-12.6h3.3l2.5,8.7h0.1l2.5-8.7h3.3l-4.3,12.6v9.3H235.1z"/>
	</g>
</g>
</svg>
